<svg width="76" height="76" viewBox="0 0 76 76" fill="none" xmlns="http://www.w3.org/2000/svg">
<rect width="76" height="76" rx="38" fill="url(#paint0_linear_187_738)"/>
<path d="M40.3555 54.2109C39.5243 54.1185 38.2307 53.7953 36.7989 53.4258C35.9677 53.9339 34.813 54.1185 33.4272 53.6568C33.1038 53.5643 32.7345 53.4258 32.365 53.2412C31.4873 52.7792 30.4712 52.1326 29.3629 51.4398C29.2704 51.3938 29.2244 51.3474 29.1319 51.3013C28.8548 51.1167 28.7163 50.7932 28.8548 50.4701C28.9934 50.1005 29.4554 49.962 29.7785 50.193C29.871 50.2391 29.9631 50.2855 30.0556 50.3776C31.4873 51.3013 32.8271 52.1789 33.7968 52.5024C35.5981 53.0566 36.6142 52.3178 36.9374 51.3938C37.2145 50.6547 37.0759 49.731 36.1983 49.3615C34.9975 48.8073 33.6579 48.0222 32.4107 47.2366C30.9325 46.3129 29.4086 45.4353 28.2539 44.9733C26.9607 44.4652 23.9586 44.0496 20.9562 44.3728C19.478 44.5113 17.8155 44.7884 16.7994 44.9269C16.2913 45.0194 15.9217 45.4811 16.0142 45.9892L17.0304 51.8552C17.1692 52.2711 17.6309 52.5943 18.139 52.5021L19.8018 52.225C20.2174 52.179 20.5869 52.2711 20.864 52.5946C22.6653 54.442 24.7437 56.1048 26.1755 56.9824C29.3626 58.8762 37.7688 58.3681 40.2629 58.091C42.7573 57.7675 42.8034 54.5341 40.3554 54.2109L40.3555 54.2109Z" fill="#01DA63"/>
<path d="M58.9232 24.6043C58.8307 24.0963 58.369 23.7731 57.8609 23.8653L56.1982 24.1423C55.7825 24.1884 55.413 24.0963 55.1359 23.7728C53.3346 21.9254 51.2562 20.2626 49.8244 19.385C46.6373 17.4912 38.2312 17.9992 35.737 18.2764C33.243 18.5535 33.243 21.7866 35.6445 22.11C36.4757 22.2025 37.7694 22.5256 39.2011 22.8952C40.0323 22.3871 41.187 22.2025 42.5728 22.6642C42.8962 22.7566 43.2655 22.8952 43.635 23.0798C44.5127 23.5418 45.5288 24.1884 46.6371 24.8811C46.7296 24.9272 46.7756 24.9736 46.8681 25.0197C47.1452 25.2043 47.2837 25.5277 47.1452 25.8509C47.0066 26.2204 46.5446 26.359 46.2215 26.128C46.129 26.0819 46.0369 26.0355 45.9444 25.9434C44.5127 25.0197 43.173 24.142 42.2032 23.8185C40.4019 23.2644 39.3858 24.0031 39.0626 24.9271C38.7855 25.6662 38.9241 26.5899 39.8017 26.9595C41.0025 27.5137 42.3421 28.2988 43.5893 29.0843C45.0675 30.008 46.5914 30.8857 47.7461 31.3476C49.0394 31.8557 52.0414 32.2713 55.0438 31.9482C56.522 31.8096 58.1845 31.5326 59.2006 31.394C59.7087 31.3016 60.0783 30.8399 59.9858 30.3318L58.9232 24.6043Z" fill="#01DA63"/>
<path d="M37.9999 30.1931C33.6121 30.1931 30.0094 33.7958 30.0094 38.1836C30.0094 42.5714 33.6121 46.1741 37.9999 46.1741C42.3877 46.1741 45.9904 42.5714 45.9904 38.1836C45.9904 33.7958 42.3877 30.1931 37.9999 30.1931ZM38.6926 42.1559V43.172C38.6926 43.2645 38.6001 43.3566 38.5079 43.3566H37.5378C37.4454 43.3566 37.3532 43.2642 37.3532 43.172V42.2019C36.3371 42.1558 35.5519 41.3707 35.4594 40.3545C35.4594 40.2621 35.5519 40.1699 35.644 40.1699L36.6141 40.1696C36.7066 40.1696 36.7988 40.2157 36.7988 40.3081C36.8448 40.6316 37.1222 40.8623 37.4454 40.8623H38.323C38.8311 40.8623 39.2932 40.4928 39.3392 39.9846C39.3852 39.3841 38.9236 38.9224 38.3691 38.9224H37.7224C36.5216 38.9224 35.413 38.0447 35.2745 36.7976C35.1359 35.5043 36.0596 34.3957 37.3068 34.2571V33.287C37.3068 33.1945 37.3993 33.1024 37.4914 33.1024H38.4616C38.554 33.1024 38.6462 33.1949 38.6462 33.287V34.2571C39.6623 34.3032 40.4475 35.0884 40.54 36.1045C40.54 36.197 40.4475 36.2891 40.3554 36.2891L39.3856 36.2898C39.2931 36.2898 39.201 36.2437 39.201 36.1512C39.1549 35.8277 38.8775 35.5971 38.5543 35.5971H37.6767C37.1686 35.5971 36.7066 35.9666 36.6605 36.4747C36.6145 37.0753 37.0762 37.537 37.6307 37.537H38.3697C39.7555 37.537 40.8177 38.7378 40.6792 40.1234C40.5864 41.1396 39.7087 41.9711 38.6926 42.1558L38.6926 42.1559Z" fill="#01DA63"/>
<defs>
<linearGradient id="paint0_linear_187_738" x1="38" y1="0" x2="38" y2="76" gradientUnits="userSpaceOnUse">
<stop stop-color="#1A2C23"/>
<stop offset="1" stop-color="#1A2C23" stop-opacity="0"/>
</linearGradient>
</defs>
</svg>
