<svg width="76" height="76" viewBox="0 0 76 76" fill="none" xmlns="http://www.w3.org/2000/svg">
<rect width="76" height="76" rx="38" fill="url(#paint0_linear_187_729)"/>
<path d="M18.8853 33.8244C19.8434 32.844 19.2502 31.7705 18.2011 31.724C16.4675 31.6305 15.4638 29.7169 16.8783 28.1296C18.4293 26.6826 20.2997 27.7096 20.391 29.4831C20.4365 30.5566 21.486 31.1636 22.4438 30.1832L24.7703 27.8026C25.4544 27.1026 26.5948 27.1026 27.2794 27.8026L29.6058 30.1832C30.564 31.1636 31.6131 30.5566 31.6586 29.4831C31.7499 27.7092 33.62 26.6822 35.1713 28.1761C36.5854 29.7631 35.6276 31.677 33.8485 31.7705C32.7994 31.817 32.2062 32.8908 33.1644 33.8709L35.5366 36.2983C36.2208 36.9984 36.2208 38.1653 35.5366 38.8657L33.8033 40.6393C33.621 40.0792 33.3015 39.5189 32.8911 39.0989C31.4311 37.605 29.2415 37.6519 27.6451 39.1923L27.5541 39.2855C26.0487 40.9194 26.0487 43.2064 27.4627 44.6534C27.8732 45.0734 28.375 45.4003 28.9682 45.5869L27.3259 47.2673C26.5959 47.9674 25.4555 47.9674 24.7713 47.2673L22.4449 44.8868C21.4867 43.9063 20.4376 44.5133 20.3921 45.5868C20.2995 47.3145 18.4291 48.2945 16.8781 46.8476C15.464 45.2606 16.4218 43.3466 18.1554 43.2532C19.2046 43.2066 19.7977 42.1328 18.8396 41.1527L16.5131 38.7722C15.829 38.0721 15.829 36.9052 16.5131 36.2048L18.8853 33.8244ZM28.5564 23.9285C27.8722 24.6285 27.8264 25.8424 28.5564 26.5424L30.1986 28.2229C30.381 27.6628 30.7005 27.1025 31.1109 26.6825C32.5709 25.1886 34.7605 25.2355 36.3569 26.7759L36.4479 26.869C37.9533 28.503 37.9533 30.79 36.5392 32.2369C36.1287 32.657 35.627 32.9839 35.0338 33.1704L36.7671 34.944C37.4512 35.644 38.5917 35.644 39.2762 34.944L41.6484 32.5166C42.6066 31.5362 43.6557 32.1431 43.7012 33.2167C43.7925 34.9905 45.6626 36.0176 47.2139 34.5702C48.628 32.9832 47.6702 31.0693 45.9366 30.9758C44.8874 30.9293 44.2943 29.8554 45.2524 28.8753L47.5789 26.4948C48.263 25.7948 48.263 24.6278 47.5789 23.9274L45.2524 21.5468C44.2943 20.5664 44.8874 19.4929 45.9366 19.4464C47.6702 19.3529 48.6739 17.4393 47.2594 15.852C45.7084 14.405 43.838 15.3851 43.7466 17.2055C43.7011 18.2791 42.6517 18.886 41.6939 17.9056L39.3674 15.525C38.6833 14.825 37.5429 14.825 36.8583 15.525L34.5319 17.9056C33.5737 18.886 32.5704 18.3256 32.4791 17.2055C32.3878 15.4316 30.5177 14.4046 28.9664 15.8985C27.5523 17.4855 28.5101 19.3994 30.2437 19.4929C31.2929 19.5394 31.886 20.6133 30.9279 21.5933L28.5564 23.9285ZM48.5829 30.3703C50.0429 31.8642 49.997 34.1047 48.4916 35.7382L48.4006 35.8313C46.8038 37.3717 44.5687 37.3717 43.1546 35.9247C42.7441 35.5047 42.4246 34.9913 42.2423 34.3843L40.5091 36.1579C39.8249 36.8579 39.8249 38.0249 40.5091 38.7253L42.8813 41.1527C43.8395 42.1331 43.2463 43.2067 42.1972 43.2532C40.4636 43.3466 39.4599 45.2602 40.8744 46.8475C42.4253 48.2945 44.2958 47.3145 44.3871 45.5405C44.4326 44.467 45.482 43.8601 46.4399 44.8405L48.7663 47.221C49.4505 47.9211 50.5909 47.9211 51.2754 47.221L53.6019 44.8405C54.56 43.8601 55.6092 44.467 55.6546 45.5405C55.746 47.3144 57.6161 48.3414 59.1673 46.894C60.5814 45.307 59.6237 43.3931 57.8446 43.2997C56.7954 43.2531 56.2023 42.1793 57.1604 41.1992L59.4869 38.8187C60.171 38.1186 60.171 36.9517 59.4869 36.2512L57.1604 33.8707C56.2023 32.8903 56.7499 31.8637 57.8446 31.7702C59.5782 31.6768 60.5818 29.7632 59.1219 28.1759C57.5709 26.7289 55.7005 27.709 55.6092 29.4829C55.5637 30.5564 54.5143 31.1633 53.5564 30.1829L51.23 27.8024C50.5458 27.1023 49.3595 27.1023 48.6754 27.8024L47.0331 29.4828C47.6708 29.6232 48.1726 29.9501 48.5831 30.3702L48.5829 30.3703ZM30.153 55.5769C28.4194 55.6703 27.4158 57.5839 28.8303 59.1712C30.3812 60.6182 32.2516 59.6382 32.343 57.8177C32.3885 56.7442 33.4379 56.1373 34.3957 57.1177L36.7222 59.4982C37.4063 60.1983 38.5468 60.1983 39.2313 59.4982L41.5577 57.1177C42.5159 56.1373 43.5192 56.6976 43.6105 57.8177C43.7018 59.5916 45.5719 60.6186 47.1232 59.1247C48.5373 57.5377 47.5795 55.6238 45.8459 55.5304C44.7967 55.4838 44.2036 54.41 45.1617 53.4299L47.4882 51.0494C48.1724 50.3493 48.1724 49.1354 47.4882 48.4354L45.8459 46.755C45.6636 47.315 45.3441 47.8754 44.9336 48.2954C43.4737 49.7893 41.2841 49.7424 39.6877 48.2019L39.5967 48.1088C38.0913 46.4749 38.0913 44.1879 39.5053 42.7409C39.9158 42.3209 40.4176 41.994 41.0108 41.8074L39.2775 40.0339C38.5933 39.3338 37.4529 39.3338 36.7684 40.0339L34.3955 42.4602C33.4373 43.4407 32.3882 42.8337 32.3427 41.7602C32.2514 39.9863 30.3813 38.9593 28.83 40.4067C27.4159 41.9937 28.3737 43.9076 30.1074 44.001C31.1565 44.0476 31.7496 45.1214 30.7915 46.1015L28.465 48.482C27.7809 49.1821 27.7809 50.349 28.465 51.0495L30.7915 53.43C31.7954 54.457 31.2023 55.5305 30.1532 55.5771L30.153 55.5769Z" fill="#01DA63"/>
<defs>
<linearGradient id="paint0_linear_187_729" x1="38" y1="0" x2="38" y2="76" gradientUnits="userSpaceOnUse">
<stop stop-color="#1A2C23"/>
<stop offset="1" stop-color="#1A2C23" stop-opacity="0"/>
</linearGradient>
</defs>
</svg>
