<svg width="76" height="76" viewBox="0 0 76 76" fill="none" xmlns="http://www.w3.org/2000/svg">
<rect width="76" height="76" rx="38" fill="url(#paint0_linear_187_699)"/>
<path d="M57.5617 42.5715V33.4207C58.5161 33.2175 59.331 32.6013 59.7864 31.7384C60.2418 30.8751 60.2906 29.8544 59.9196 28.9519C59.5483 28.0495 58.7959 27.3581 57.8653 27.065C56.9347 26.7718 55.9219 26.9073 55.1008 27.4341L48.5591 20.8917C49.9441 18.7273 48.386 15.8334 45.7891 15.8334C44.8128 15.8334 43.8869 16.2675 43.2617 17.0179C42.6369 17.7683 42.3775 18.7574 42.5541 19.718L34.9445 22.8804L32.9709 20.9074C33.4003 20.2418 33.5753 19.4438 33.4637 18.6597C33.352 17.8753 32.9613 17.1576 32.3631 16.6385C31.7652 16.1194 30.9997 15.8334 30.2077 15.8334C27.6108 15.8334 26.0449 18.7215 27.4377 20.8917L20.8959 27.4341C19.9787 26.8488 18.8311 26.7551 17.8309 27.184C16.8308 27.6128 16.1074 28.5088 15.8987 29.5768C15.6901 30.645 16.023 31.7473 16.7885 32.5212C17.5536 33.2948 18.6521 33.6401 19.7223 33.4431L21.6153 37.996L19.7223 42.5522C18.6514 42.354 17.5517 42.6984 16.7854 43.4723C16.0193 44.2462 15.6857 45.3491 15.8944 46.418C16.1034 47.4872 16.8277 48.3832 17.829 48.8117C18.8304 49.2399 19.9786 49.145 20.8959 48.5579L27.4376 55.1003C26.9108 55.9215 26.7754 56.9344 27.0684 57.8651C27.3615 58.7958 28.0528 59.5483 28.9552 59.9197C29.8576 60.2907 30.8782 60.2418 31.7413 59.7864C32.6041 59.331 33.2204 58.5159 33.4234 57.5615H42.5732C42.8033 58.6297 43.5486 59.5137 44.562 59.9212C45.5758 60.3287 46.7255 60.2063 47.6307 59.5947C48.5359 58.9828 49.0785 57.9615 49.0785 56.8688C49.0785 55.7761 48.5359 54.7549 47.6307 54.143C46.7254 53.5314 45.5757 53.409 44.562 53.8165C43.5486 54.224 42.8032 55.1079 42.5732 56.1762H33.6783L54.1662 47.6617C55.9834 50.2892 60.1592 49.0122 60.1592 45.7874C60.158 45.0354 59.8998 44.3064 59.4278 43.7214C58.9554 43.1364 58.2972 42.7307 57.5623 42.5712L57.5617 42.5715ZM22.3634 45.2009L24.2798 44.4096L28.2463 53.9531L21.8814 47.5871C22.3429 46.8831 22.5158 46.0285 22.3633 45.2005L22.3634 45.2009ZM40.4224 30.3154L37.4706 37.4664L25.0292 42.602L23.1161 37.9963L27.4851 27.4809L34.6229 24.5148L40.4224 30.3154ZM47.0671 35.0024L50.9711 33.3903L54.8914 42.8269L47.0671 35.0024ZM52.2503 32.8622L54.1643 32.072V32.0723C54.6377 32.763 55.358 33.2453 56.177 33.42V42.3175L52.2503 32.8622ZM53.6353 30.7913L51.7189 31.5825L47.7509 22.0391L54.1157 28.4047V28.405C53.6542 29.109 53.4814 29.9636 53.6338 30.7916L53.6353 30.7913ZM45.2042 22.36V22.3603C45.5949 22.4317 45.9953 22.4317 46.3858 22.3603L50.437 32.1095L46.004 33.9396L42.0533 29.9875L45.2042 22.36ZM44.6189 34.5138L39.2761 36.7196L41.4816 31.3762L44.6189 34.5138ZM36.7244 39.2753L30.7947 53.6328C30.4043 53.5605 30.0039 53.5605 29.6131 53.6328L25.5604 43.8828L36.7244 39.2753ZM32.9156 54.999V54.9993C32.6893 54.674 32.4064 54.392 32.0802 54.1664L38.5353 38.5306L45.6787 35.5726L54.1067 44.0015H54.1064C53.6507 44.7049 53.4819 45.5565 53.6346 46.3805L32.9156 54.999ZM43.0879 20.9966C43.3148 21.3219 43.5977 21.6042 43.9233 21.8305L40.9922 28.9295L36.0079 23.9402L43.0879 20.9966ZM28.2382 25.6716L29.6136 22.362C30.4378 22.5148 31.2892 22.3459 31.9926 21.8902L33.5612 23.4596L28.2382 25.6716ZM22.0436 28.2427L28.2468 22.0388L26.4289 26.4213L22.0436 28.2427ZM21.0048 32.9081C21.5257 32.5485 21.9317 32.0455 22.1731 31.4601C22.4149 30.8748 22.482 30.2323 22.3667 29.6096L25.6758 28.234L22.3657 36.1912L21.0048 32.9081ZM23.7498 43.1298L21.8343 43.921C21.6086 43.5952 21.3267 43.3123 21.0015 43.0856L22.3658 39.8011L23.7498 43.1298Z" fill="#01DA63"/>
<defs>
<linearGradient id="paint0_linear_187_699" x1="38" y1="0" x2="38" y2="76" gradientUnits="userSpaceOnUse">
<stop stop-color="#1A2C23"/>
<stop offset="1" stop-color="#1A2C23" stop-opacity="0"/>
</linearGradient>
</defs>
</svg>
