<svg width="76" height="76" viewBox="0 0 76 76" fill="none" xmlns="http://www.w3.org/2000/svg">
<rect width="76" height="76" rx="38" fill="url(#paint0_linear_187_747)"/>
<path d="M60 38.4651C60 37.7328 59.406 37.1384 58.6734 37.1384C57.9407 37.1384 57.3467 37.7324 57.3467 38.4651C57.3467 48.5929 49.5232 56.9213 39.6032 57.7397V55.2915L34.9047 59.0823L39.6032 62.8742V60.4C50.9882 59.5748 59.9998 50.0562 59.9998 38.4648L60 38.4651Z" fill="#01DA63"/>
<path d="M38 19.1185V21.5827L42.6989 17.7919L38 14V16.4652C25.869 16.4652 16 26.3342 16 38.4652C16 39.1975 16.594 39.7922 17.3266 39.7922C18.0592 39.7922 18.6532 39.1975 18.6532 38.4652C18.6532 27.7968 27.3321 19.1183 37.9992 19.1183L38 19.1185Z" fill="#01DA63"/>
<path d="M53.5053 38.4652C53.5053 29.9019 46.5635 22.9598 38 22.9598C29.4371 22.9598 22.4956 29.9016 22.4956 38.4652C22.4956 47.0284 29.4374 53.9705 38 53.9705C46.5632 53.9705 53.5053 47.0283 53.5053 38.4652ZM30.0246 35.7442C29.5291 35.5066 29.3199 34.9123 29.5578 34.4168C29.7953 33.9213 30.3904 33.7124 30.8848 33.9495L38.4299 37.5675C38.5503 37.6255 38.6581 37.7065 38.7462 37.8065L46.4988 46.5928C46.8627 47.005 46.8229 47.6337 46.4114 47.9964C46.2226 48.1641 45.9873 48.2455 45.7535 48.2455C45.4784 48.2455 45.2037 48.1321 45.0075 47.9094L37.388 39.2745L30.0246 35.7442Z" fill="#01DA63"/>
<defs>
<linearGradient id="paint0_linear_187_747" x1="38" y1="0" x2="38" y2="76" gradientUnits="userSpaceOnUse">
<stop stop-color="#1A2C23"/>
<stop offset="1" stop-color="#1A2C23" stop-opacity="0"/>
</linearGradient>
</defs>
</svg>
