<svg width="76" height="76" viewBox="0 0 76 76" fill="none" xmlns="http://www.w3.org/2000/svg">
<rect width="76" height="76" rx="38" fill="url(#paint0_linear_187_720)"/>
<path d="M37.625 60.6945C37.7924 60.6945 38.023 60.6279 38.1799 60.5518C41.3637 58.9814 57.2292 50.6138 57.2292 40.1711V27.2439C57.2292 26.8156 56.9044 26.4347 56.4543 26.3299C54.2969 25.8064 52.7887 24.0168 52.7887 21.9703C52.7782 21.5515 52.4639 21.1707 52.0138 21.0563C46.4736 19.6855 41.9704 17.7628 38.2427 15.1927C37.8657 14.9358 37.3525 14.9358 36.9755 15.1927C33.2472 17.7724 28.7442 19.6859 23.2044 21.0563C22.7538 21.1707 22.44 21.5512 22.44 21.9703C22.4299 24.0168 20.9217 25.8064 18.7854 26.3299C18.3248 26.4347 18 26.8152 18 27.2439V40.1711C18 50.6139 33.866 58.9812 37.102 60.5804C37.2594 60.6565 37.4479 60.6947 37.6258 60.6947L37.625 60.6945ZM29.1214 45.245V35.583C29.1214 35.0595 29.5821 34.6313 30.1685 34.6313H30.7339V30.5381C30.7339 28.8628 31.4567 27.2919 32.7555 26.1119C34.0537 24.9315 35.782 24.284 37.6146 24.284C41.4055 24.284 44.4846 27.0828 44.4846 30.5381V34.6313H45.0711C45.647 34.6313 46.1182 35.0595 46.1182 35.583V45.245C46.1182 46.8633 44.6625 48.1864 42.8716 48.1864H32.3571C30.5666 48.1864 29.1214 46.8633 29.1214 45.245Z" fill="#01DA63"/>
<path d="M42.3903 30.5378C42.3903 28.139 40.254 26.1877 37.6149 26.1877C36.3372 26.1877 35.1328 26.6351 34.2321 27.4539C33.3314 28.2821 32.8286 29.3766 32.8286 30.5378V34.631H42.3903V30.5378Z" fill="#01DA63"/>
<path d="M44.0241 45.245V36.5353H31.2157V45.245C31.2157 45.8163 31.729 46.2825 32.3571 46.2825H42.8716C43.5001 46.2825 44.024 45.8164 44.024 45.245H44.0241ZM38.6618 42.1132C38.6618 42.6367 38.1907 43.065 37.6147 43.065C37.0388 43.065 36.5676 42.6367 36.5676 42.1132V40.7045C36.5676 40.181 37.0388 39.7528 37.6147 39.7528C38.1907 39.7528 38.6618 40.181 38.6618 40.7045V42.1132Z" fill="#01DA63"/>
<defs>
<linearGradient id="paint0_linear_187_720" x1="38" y1="0" x2="38" y2="76" gradientUnits="userSpaceOnUse">
<stop stop-color="#1A2C23"/>
<stop offset="1" stop-color="#1A2C23" stop-opacity="0"/>
</linearGradient>
</defs>
</svg>
