<svg width="76" height="76" viewBox="0 0 76 76" fill="none" xmlns="http://www.w3.org/2000/svg">
<rect width="76" height="76" rx="38" fill="url(#paint0_linear_187_711)"/>
<path d="M58.4956 36.3951C56.7659 36.3951 55.3472 37.806 55.3472 39.5358C55.3472 40.3251 55.666 41.0742 56.208 41.6559L49.9349 49.284C49.4406 48.973 48.8748 48.798 48.2931 48.798C47.2729 48.798 46.3242 49.3001 45.7424 50.1291L38.0744 46.1038C38.2017 45.753 38.2896 45.4025 38.2896 45.0437C38.2896 43.3062 36.8788 41.8953 35.1412 41.8953C33.4037 41.8953 31.9928 43.3062 31.9928 45.0437C31.9928 45.554 32.1202 46.0401 32.3515 46.4863L24.8909 51.7311C24.3009 51.0934 23.48 50.7109 22.6115 50.7109C20.8817 50.7109 19.463 52.1218 19.463 53.8593C19.463 55.589 20.8739 57 22.6115 57C24.3412 57 25.7599 55.5891 25.7599 53.8593C25.7599 53.349 25.6325 52.8629 25.4012 52.4167L32.8617 47.172C33.4517 47.8097 34.2726 48.1922 35.1412 48.1922C36.1614 48.1922 37.11 47.6901 37.6919 46.861L45.3599 50.8863C45.2325 51.2372 45.1446 51.5877 45.1446 51.9464C45.1446 53.684 46.5555 55.0948 48.2931 55.0948C50.0228 55.0948 51.4415 53.684 51.4415 51.9464C51.4415 51.1571 51.1227 50.4081 50.5807 49.8341L56.8538 42.2059C57.3559 42.5169 57.9139 42.692 58.4956 42.692C60.2254 42.692 61.6441 41.2811 61.6441 39.5436C61.6441 37.8057 60.2336 36.3951 58.4956 36.3951Z" fill="#01DA63"/>
<path d="M28.2103 40.6172C28.2103 36.6919 25.0309 33.5121 21.1051 33.5121C17.1798 33.5121 14 36.6915 14 40.6172C14 44.5426 17.1794 47.7224 21.1051 47.7224C25.0305 47.7219 28.2103 44.5426 28.2103 40.6172ZM20.154 45.0179C19.5013 44.9338 18.8861 44.7103 18.4664 44.4119L18.2708 44.272L18.8115 42.7614L19.1566 42.9945C19.6416 43.3208 20.2943 43.5164 20.8907 43.5164C21.5155 43.5164 22.1494 43.2088 22.1494 42.5374C22.1494 42.0804 21.9255 41.6891 20.844 41.2508C19.604 40.7658 18.4476 40.1131 18.4476 38.6492C18.4476 37.5211 19.1378 36.6354 20.2846 36.2902L20.4619 36.2344V34.8358H21.935V36.1412L22.1494 36.1691C22.6531 36.2436 23.1005 36.393 23.5105 36.6353L23.7436 36.7751L23.1842 38.267L22.8578 38.0805C22.6247 37.9498 22.1398 37.6701 21.3472 37.6701C20.5455 37.6701 20.2562 38.0897 20.2562 38.4905C20.2562 38.9659 20.5825 39.2456 21.7014 39.7119C22.8203 40.1689 23.958 40.8495 23.958 42.4438C23.958 43.6094 23.2212 44.5604 22.0278 44.9238L21.8505 44.9796V46.4157L20.3682 46.4166V45.0645L20.154 45.0179Z" fill="#01DA63"/>
<path d="M44.3221 20C38.5212 20 33.8221 24.6985 33.8221 30.5C33.8221 36.3009 38.5206 41 44.3221 41C50.1229 41 54.8221 36.3015 54.8221 30.5C54.8221 24.6991 50.1094 20 44.3221 20ZM45.6723 36.8391L45.4102 36.9215V39.0439H43.2191V37.0458L42.9023 37.0046C41.9377 36.8803 41.0286 36.55 40.4085 36.1089L40.1194 35.9022L40.9184 33.6698L41.4284 34.0143C42.145 34.4966 43.1096 34.7857 43.991 34.7857C44.9144 34.7857 45.8512 34.3311 45.8512 33.3389C45.8512 32.6634 45.5202 32.0852 43.9221 31.4375C42.0895 30.7208 40.3807 29.7562 40.3807 27.5928C40.3807 25.9258 41.4006 24.6168 43.0953 24.1067L43.3574 24.0243V21.9574H45.5343V23.8865L45.8511 23.9277C46.5955 24.0378 47.2567 24.2587 47.8626 24.6167L48.2071 24.8234L47.3803 27.0281L46.898 26.7525C46.5536 26.5593 45.8369 26.1459 44.6656 26.1459C43.4809 26.1459 43.0534 26.766 43.0534 27.3584C43.0534 28.0609 43.5357 28.4743 45.1891 29.1632C46.8426 29.8387 48.5238 30.8445 48.5238 33.2005C48.5245 34.8965 47.4221 36.302 45.6721 36.839L45.6723 36.8391Z" fill="#01DA63"/>
<defs>
<linearGradient id="paint0_linear_187_711" x1="38" y1="0" x2="38" y2="76" gradientUnits="userSpaceOnUse">
<stop stop-color="#1A2C23"/>
<stop offset="1" stop-color="#1A2C23" stop-opacity="0"/>
</linearGradient>
</defs>
</svg>
