<svg width="27" height="26" viewBox="0 0 27 26" fill="none" xmlns="http://www.w3.org/2000/svg">
<path fill-rule="evenodd" clip-rule="evenodd" d="M20.5624 2.3872C18.4373 0.938751 15.9235 0.165389 13.3506 0.168503H13.0601C12.9477 1.75492 12.6023 3.31619 12.0348 4.80216C15.0839 5.13904 18.1442 4.2724 20.5624 2.3872ZM11.3341 0.330652C10.9923 3.27469 9.89004 5.97979 7.65987 7.68647L6.83957 8.32648C6.22775 6.73062 5.36216 5.24377 4.27616 3.92323C6.18992 2.01144 8.66061 0.75383 11.3341 0.330652ZM11.0778 20.1879C11.4607 20.188 11.8432 20.2137 12.2228 20.2647L13.7352 20.6231C12.9664 22.2356 12.478 23.967 12.2911 25.7432C9.51098 25.5169 6.88172 24.3869 4.80593 22.5261C6.58324 21.0809 8.78698 20.2594 11.0778 20.1879ZM5.40405 13.3271C5.74199 10.4276 4.92913 7.5113 3.1397 5.20323C1.56938 7.28327 0.674777 9.79379 0.576284 12.3969C2.21727 12.5767 3.82176 13.0025 5.33569 13.6599L5.40405 13.3271ZM0.644561 14.317C3.32388 14.6378 5.77424 15.9837 7.48033 18.0717L8.03573 19.1127C6.47923 19.6482 5.01718 20.4258 3.70357 21.4168C1.9757 19.4215 0.907312 16.9418 0.644561 14.317ZM25.9712 10.8694C22.9805 10.6305 19.9899 9.77715 18.2809 7.60966L17.3496 6.36378C19.0578 5.71434 20.6352 4.76337 22.0064 3.55627C24.1099 5.48249 25.5059 8.05745 25.9712 10.8694ZM20.5197 12.8321C20.1266 15.6994 21.2716 18.7287 23.1685 21.212C25.1168 18.9099 26.1827 15.9914 26.1763 12.9772V12.6444C24.3322 12.526 22.5226 12.0901 20.8273 11.3559L20.5197 12.8321ZM14.0428 25.7688C14.3589 22.9442 15.3416 20.4951 17.5376 18.7885L19.1354 17.7986C19.7451 19.5402 20.6529 21.1629 21.8184 22.5944C19.6604 24.5 16.9195 25.619 14.0428 25.7688Z" fill="#01DA63"/>
</svg>
