<svg width="418" height="746" viewBox="0 0 418 746" fill="none" xmlns="http://www.w3.org/2000/svg">
<path fill-rule="evenodd" clip-rule="evenodd" d="M254.626 64.5676C192.782 22.4157 119.628 -0.090357 44.7538 0.000272644H36.2993C33.0289 46.1673 22.9747 91.6027 6.45972 134.847C95.1949 144.65 184.253 119.43 254.626 64.5676ZM-13.9311 4.71944C-23.8777 90.3953 -55.955 169.118 -120.856 218.785L-144.728 237.41C-162.533 190.968 -187.723 147.699 -219.328 109.269C-163.634 53.633 -91.7335 17.0346 -13.9311 4.71944ZM-21.3902 582.597C-10.2457 582.599 0.886047 583.346 11.9307 584.832L55.9444 595.262C33.571 642.188 19.3599 692.575 13.92 744.264C-66.986 737.678 -143.501 704.792 -203.91 650.641C-152.188 608.585 -88.0554 584.676 -21.3902 582.597ZM-186.505 382.934C-176.67 298.555 -200.326 213.687 -252.401 146.518C-298.099 207.05 -324.134 280.111 -327 355.865C-279.245 361.099 -232.552 373.489 -188.494 392.619L-186.505 382.934ZM-325.012 411.741C-247.04 421.077 -175.731 460.245 -126.081 521.009L-109.918 551.306C-155.215 566.889 -197.763 589.518 -235.991 618.357C-286.274 560.291 -317.366 488.129 -325.012 411.741ZM412.031 311.413C324.999 304.459 237.966 279.626 188.233 216.548L161.129 180.291C210.843 161.392 256.747 133.717 296.651 98.5888C357.865 154.644 398.49 229.58 412.031 311.413ZM253.383 368.532C241.945 451.973 275.266 540.132 330.469 612.398C387.166 545.403 418.188 460.471 417.999 372.754V363.069C364.335 359.623 311.671 346.936 262.335 325.57L253.383 368.532ZM64.8954 745.007C74.0959 662.808 102.693 591.536 166.599 541.869L213.099 513.062C230.843 563.745 257.262 610.968 291.18 652.626C228.379 708.083 148.612 740.648 64.8954 745.007Z" fill="url(#paint0_linear_146_751)" fill-opacity="0.02"/>
<defs>
<linearGradient id="paint0_linear_146_751" x1="45.5" y1="0" x2="45.5" y2="745.007" gradientUnits="userSpaceOnUse">
<stop stop-color="#01DA63"/>
<stop offset="1" stop-color="#01DA63" stop-opacity="0"/>
</linearGradient>
</defs>
</svg>
