<svg width="373" height="746" viewBox="0 0 373 746" fill="none" xmlns="http://www.w3.org/2000/svg">
<path fill-rule="evenodd" clip-rule="evenodd" d="M581.626 64.5676C519.782 22.4157 446.628 -0.090357 371.754 0.000272644H363.299C360.029 46.1673 349.975 91.6027 333.46 134.847C422.195 144.65 511.253 119.43 581.626 64.5676ZM313.069 4.71944C303.122 90.3953 271.045 169.118 206.144 218.785L182.272 237.41C164.467 190.968 139.277 147.699 107.672 109.269C163.366 53.633 235.266 17.0346 313.069 4.71944ZM305.61 582.597C316.754 582.599 327.886 583.346 338.931 584.832L382.944 595.262C360.571 642.188 346.36 692.575 340.92 744.264C260.014 737.678 183.499 704.792 123.09 650.641C174.812 608.585 238.945 584.676 305.61 582.597ZM140.495 382.934C150.33 298.555 126.674 213.687 74.5992 146.518C28.9007 207.05 2.86629 280.111 0 355.865C47.7552 361.099 94.4483 373.489 138.506 392.619L140.495 382.934ZM1.98761 411.741C79.9599 421.077 151.269 460.245 200.919 521.009L217.082 551.306C171.785 566.889 129.237 589.518 91.0094 618.357C40.7259 560.291 9.63408 488.129 1.98761 411.741ZM739.031 311.413C651.999 304.459 564.966 279.626 515.233 216.548L488.129 180.291C537.843 161.392 583.747 133.717 623.651 98.5888C684.865 154.644 725.49 229.58 739.031 311.413ZM580.383 368.532C568.945 451.973 602.266 540.132 657.469 612.398C714.166 545.403 745.188 460.471 744.999 372.754V363.069C691.335 359.623 638.671 346.936 589.335 325.57L580.383 368.532ZM391.895 745.007C401.096 662.808 429.693 591.536 493.599 541.869L540.099 513.062C557.843 563.745 584.262 610.968 618.18 652.626C555.379 708.083 475.612 740.648 391.895 745.007Z" fill="url(#paint0_linear_146_760)" fill-opacity="0.02"/>
<defs>
<linearGradient id="paint0_linear_146_760" x1="372.5" y1="0" x2="372.5" y2="745.007" gradientUnits="userSpaceOnUse">
<stop stop-color="#01DA63" stop-opacity="0"/>
<stop offset="1" stop-color="#01DA63"/>
</linearGradient>
</defs>
</svg>
