<svg width="1395" height="1395" viewBox="0 0 1395 1395" fill="none" xmlns="http://www.w3.org/2000/svg">
<mask id="mask0_1084_948" style="mask-type:alpha" maskUnits="userSpaceOnUse" x="183" y="128" width="1017" height="1126">
<rect x="183" y="128" width="1016.32" height="1125.79" fill="url(#paint0_radial_1084_948)"/>
</mask>
<g mask="url(#mask0_1084_948)">
<rect x="237.893" y="126.521" width="114.874" height="114.874" stroke="#48BB78" stroke-width="1.45411"/>
<rect x="352.768" y="126.521" width="114.874" height="114.874" stroke="#48BB78" stroke-width="1.45411"/>
<rect x="467.642" y="126.521" width="114.874" height="114.874" stroke="#48BB78" stroke-width="1.45411"/>
<rect x="582.516" y="126.521" width="114.874" height="114.874" stroke="#48BB78" stroke-width="1.45411"/>
<rect x="697.391" y="126.521" width="114.874" height="114.874" stroke="#48BB78" stroke-width="1.45411"/>
<rect x="812.265" y="126.521" width="114.874" height="114.874" stroke="#48BB78" stroke-width="1.45411"/>
<rect x="927.139" y="126.521" width="114.874" height="114.874" stroke="#48BB78" stroke-width="1.45411"/>
<rect x="1042.01" y="126.521" width="114.874" height="114.874" stroke="#48BB78" stroke-width="1.45411"/>
<rect x="237.893" y="241.396" width="114.874" height="114.874" stroke="#48BB78" stroke-width="1.45411"/>
<rect x="352.768" y="241.396" width="114.874" height="114.874" stroke="#48BB78" stroke-width="1.45411"/>
<rect x="467.642" y="241.396" width="114.874" height="114.874" stroke="#48BB78" stroke-width="1.45411"/>
<rect x="582.516" y="241.396" width="114.874" height="114.874" stroke="#48BB78" stroke-width="1.45411"/>
<rect x="697.391" y="241.396" width="114.874" height="114.874" stroke="#48BB78" stroke-width="1.45411"/>
<rect x="812.265" y="241.396" width="114.874" height="114.874" stroke="#48BB78" stroke-width="1.45411"/>
<rect x="927.139" y="241.396" width="114.874" height="114.874" stroke="#48BB78" stroke-width="1.45411"/>
<rect x="1042.01" y="241.396" width="114.874" height="114.874" stroke="#48BB78" stroke-width="1.45411"/>
<rect x="237.893" y="356.27" width="114.874" height="114.874" stroke="#48BB78" stroke-width="1.45411"/>
<rect x="352.768" y="356.27" width="114.874" height="114.874" stroke="#48BB78" stroke-width="1.45411"/>
<rect x="467.642" y="356.27" width="114.874" height="114.874" stroke="#48BB78" stroke-width="1.45411"/>
<rect x="582.516" y="356.27" width="114.874" height="114.874" stroke="#48BB78" stroke-width="1.45411"/>
<rect x="697.391" y="356.27" width="114.874" height="114.874" stroke="#48BB78" stroke-width="1.45411"/>
<rect x="812.265" y="356.27" width="114.874" height="114.874" stroke="#48BB78" stroke-width="1.45411"/>
<rect x="927.139" y="356.27" width="114.874" height="114.874" stroke="#48BB78" stroke-width="1.45411"/>
<rect x="1042.01" y="356.27" width="114.874" height="114.874" stroke="#48BB78" stroke-width="1.45411"/>
<rect x="237.893" y="471.144" width="114.874" height="114.874" stroke="#48BB78" stroke-width="1.45411"/>
<rect x="352.768" y="471.144" width="114.874" height="114.874" stroke="#48BB78" stroke-width="1.45411"/>
<rect x="467.642" y="471.144" width="114.874" height="114.874" stroke="#48BB78" stroke-width="1.45411"/>
<rect x="582.516" y="471.144" width="114.874" height="114.874" stroke="#48BB78" stroke-width="1.45411"/>
<rect x="697.391" y="471.144" width="114.874" height="114.874" stroke="#48BB78" stroke-width="1.45411"/>
<rect x="812.265" y="471.144" width="114.874" height="114.874" stroke="#48BB78" stroke-width="1.45411"/>
<rect x="927.139" y="471.144" width="114.874" height="114.874" stroke="#48BB78" stroke-width="1.45411"/>
<rect x="1042.01" y="471.144" width="114.874" height="114.874" stroke="#48BB78" stroke-width="1.45411"/>
<rect x="237.893" y="586.019" width="114.874" height="114.874" stroke="#48BB78" stroke-width="1.45411"/>
<rect x="352.768" y="586.019" width="114.874" height="114.874" stroke="#48BB78" stroke-width="1.45411"/>
<rect x="467.642" y="586.019" width="114.874" height="114.874" stroke="#48BB78" stroke-width="1.45411"/>
<rect x="582.516" y="586.019" width="114.874" height="114.874" stroke="#48BB78" stroke-width="1.45411"/>
<rect x="697.391" y="586.019" width="114.874" height="114.874" stroke="#48BB78" stroke-width="1.45411"/>
<rect x="812.265" y="586.019" width="114.874" height="114.874" stroke="#48BB78" stroke-width="1.45411"/>
<rect x="927.139" y="586.019" width="114.874" height="114.874" stroke="#48BB78" stroke-width="1.45411"/>
<rect x="1042.01" y="586.019" width="114.874" height="114.874" stroke="#48BB78" stroke-width="1.45411"/>
<rect x="237.893" y="700.893" width="114.874" height="114.874" stroke="#48BB78" stroke-width="1.45411"/>
<rect x="352.768" y="700.893" width="114.874" height="114.874" stroke="#48BB78" stroke-width="1.45411"/>
<rect x="467.642" y="700.893" width="114.874" height="114.874" stroke="#48BB78" stroke-width="1.45411"/>
<rect x="582.516" y="700.893" width="114.874" height="114.874" stroke="#48BB78" stroke-width="1.45411"/>
<rect x="697.391" y="700.893" width="114.874" height="114.874" stroke="#48BB78" stroke-width="1.45411"/>
<rect x="812.265" y="700.893" width="114.874" height="114.874" stroke="#48BB78" stroke-width="1.45411"/>
<rect x="927.139" y="700.893" width="114.874" height="114.874" stroke="#48BB78" stroke-width="1.45411"/>
<rect x="1042.01" y="700.893" width="114.874" height="114.874" stroke="#48BB78" stroke-width="1.45411"/>
<rect x="237.893" y="815.767" width="114.874" height="114.874" stroke="#48BB78" stroke-width="1.45411"/>
<rect x="352.768" y="815.767" width="114.874" height="114.874" stroke="#48BB78" stroke-width="1.45411"/>
<rect x="467.642" y="815.767" width="114.874" height="114.874" stroke="#48BB78" stroke-width="1.45411"/>
<rect x="582.516" y="815.767" width="114.874" height="114.874" stroke="#48BB78" stroke-width="1.45411"/>
<rect x="697.391" y="815.767" width="114.874" height="114.874" stroke="#48BB78" stroke-width="1.45411"/>
<rect x="812.265" y="815.767" width="114.874" height="114.874" stroke="#48BB78" stroke-width="1.45411"/>
<rect x="927.139" y="815.767" width="114.874" height="114.874" stroke="#48BB78" stroke-width="1.45411"/>
<rect x="1042.01" y="815.767" width="114.874" height="114.874" stroke="#48BB78" stroke-width="1.45411"/>
<rect x="237.893" y="930.642" width="114.874" height="114.874" stroke="#48BB78" stroke-width="1.45411"/>
<rect x="352.767" y="930.642" width="114.874" height="114.874" stroke="#48BB78" stroke-width="1.45411"/>
<rect x="467.642" y="930.642" width="114.874" height="114.874" stroke="#48BB78" stroke-width="1.45411"/>
<rect x="582.516" y="930.642" width="114.874" height="114.874" stroke="#48BB78" stroke-width="1.45411"/>
<rect x="697.391" y="930.642" width="114.874" height="114.874" stroke="#48BB78" stroke-width="1.45411"/>
<rect x="812.265" y="930.642" width="114.874" height="114.874" stroke="#48BB78" stroke-width="1.45411"/>
<rect x="927.139" y="930.642" width="114.874" height="114.874" stroke="#48BB78" stroke-width="1.45411"/>
<rect x="1042.01" y="930.642" width="114.874" height="114.874" stroke="#48BB78" stroke-width="1.45411"/>
<rect x="237.893" y="1045.52" width="114.874" height="114.874" stroke="#48BB78" stroke-width="1.45411"/>
<rect x="352.768" y="1045.52" width="114.874" height="114.874" stroke="#48BB78" stroke-width="1.45411"/>
<rect x="467.642" y="1045.52" width="114.874" height="114.874" stroke="#48BB78" stroke-width="1.45411"/>
<rect x="582.516" y="1045.52" width="114.874" height="114.874" stroke="#48BB78" stroke-width="1.45411"/>
<rect x="697.391" y="1045.52" width="114.874" height="114.874" stroke="#48BB78" stroke-width="1.45411"/>
<rect x="812.265" y="1045.52" width="114.874" height="114.874" stroke="#48BB78" stroke-width="1.45411"/>
<rect x="927.139" y="1045.52" width="114.874" height="114.874" stroke="#48BB78" stroke-width="1.45411"/>
<rect x="1042.01" y="1045.52" width="114.874" height="114.874" stroke="#48BB78" stroke-width="1.45411"/>
<rect x="237.893" y="1160.39" width="114.874" height="114.874" stroke="#48BB78" stroke-width="1.45411"/>
<rect x="352.768" y="1160.39" width="114.874" height="114.874" stroke="#48BB78" stroke-width="1.45411"/>
<rect x="467.642" y="1160.39" width="114.874" height="114.874" stroke="#48BB78" stroke-width="1.45411"/>
<rect x="582.516" y="1160.39" width="114.874" height="114.874" stroke="#48BB78" stroke-width="1.45411"/>
<rect x="697.391" y="1160.39" width="114.874" height="114.874" stroke="#48BB78" stroke-width="1.45411"/>
<rect x="812.265" y="1160.39" width="114.874" height="114.874" stroke="#48BB78" stroke-width="1.45411"/>
<rect x="927.139" y="1160.39" width="114.874" height="114.874" stroke="#48BB78" stroke-width="1.45411"/>
<rect x="1042.01" y="1160.39" width="114.874" height="114.874" stroke="#48BB78" stroke-width="1.45411"/>
</g>
<g filter="url(#filter0_f_1084_948)">
<circle cx="697.5" cy="697.5" r="297.5" transform="rotate(-90 697.5 697.5)" fill="#44EF91" fill-opacity="0.08"/>
</g>
<defs>
<filter id="filter0_f_1084_948" x="0" y="0" width="1395" height="1395" filterUnits="userSpaceOnUse" color-interpolation-filters="sRGB">
<feFlood flood-opacity="0" result="BackgroundImageFix"/>
<feBlend mode="normal" in="SourceGraphic" in2="BackgroundImageFix" result="shape"/>
<feGaussianBlur stdDeviation="200" result="effect1_foregroundBlur_1084_948"/>
</filter>
<radialGradient id="paint0_radial_1084_948" cx="0" cy="0" r="1" gradientUnits="userSpaceOnUse" gradientTransform="translate(691.159 690.897) rotate(90) scale(693.925 626.446)">
<stop stop-color="#D9D9D9" stop-opacity="0.07"/>
<stop offset="0.802083" stop-color="#D9D9D9" stop-opacity="0"/>
</radialGradient>
</defs>
</svg>
