<svg width="523" height="56" viewBox="0 0 523 56" fill="none" xmlns="http://www.w3.org/2000/svg">
<path d="M15.6225 11.7846H0V1.61372H42.2295V11.7846H26.607V54.5023H15.6225V11.7846ZM88.0317 32.5332H64.3539V44.3314H91.2864V54.5023H53.4507V1.61372H91.2864V11.7846H64.3539V22.3623H88.0317V32.5332ZM101.675 50.678L104.848 40.8326C108.862 43.8161 113.392 45.3078 118.436 45.3078C121.04 45.3078 123.129 44.8196 124.702 43.8432C126.275 42.8126 127.061 41.4022 127.061 39.6121C127.061 36.7914 124.159 34.5945 118.355 33.0214C115.589 32.1535 113.175 31.3127 111.113 30.499C108.564 29.4141 106.476 27.6783 104.848 25.2915C103.275 22.9048 102.489 20.0027 102.489 16.5852C102.489 11.4863 104.279 7.58064 107.859 4.8684C111.547 2.15617 115.968 0.800049 121.122 0.800049C127.143 0.800049 132.215 2.37314 136.337 5.51933L133.164 15.3647C129.475 12.4355 125.407 10.9709 120.959 10.9709C118.681 10.9709 116.863 11.432 115.507 12.3542C114.151 13.2221 113.473 14.4426 113.473 16.0157C113.473 17.5888 114.07 18.9178 115.263 20.0027C116.511 21.0333 118.03 21.8199 119.82 22.3623C121.664 22.8505 123.644 23.5014 125.759 24.3151C127.875 25.0745 129.828 25.9425 131.618 26.9189C133.462 27.841 134.981 29.3056 136.174 31.3127C137.422 33.3197 138.046 35.7607 138.046 38.6357C138.046 44.1687 136.12 48.3726 132.269 51.2476C128.472 54.0683 123.78 55.4787 118.192 55.4787C111.683 55.4787 106.177 53.8785 101.675 50.678ZM161.352 11.7846H145.73V1.61372H187.959V11.7846H172.337V54.5023H161.352V11.7846ZM210.734 54.5023H199.831V1.61372H210.734V54.5023ZM236.914 54.5023H226.011V1.61372H236.345L250.91 24.2337L265.393 1.61372H275.727V54.5023H264.823V21.3045L251.479 41.9718H250.34L236.914 21.3045V54.5023ZM320.29 41.2395C321.864 38.3645 322.65 34.0249 322.65 28.2207C322.65 22.4166 321.864 18.1041 320.29 15.2834C318.772 12.4627 315.734 11.0523 311.177 11.0523C306.567 11.0523 303.502 12.4627 301.983 15.2834C300.464 17.9956 299.705 22.3081 299.705 28.2207C299.705 34.0792 300.464 38.4187 301.983 41.2395C303.502 44.0059 306.567 45.3892 311.177 45.3892C315.68 45.3892 318.717 44.0059 320.29 41.2395ZM322.162 53.5259C319.233 54.882 315.571 55.5601 311.177 55.5601C306.729 55.5601 303.041 54.882 300.111 53.5259C294.795 51.1391 291.324 46.3385 289.696 39.1239C289.046 35.9235 288.72 32.2891 288.72 28.2207C288.72 24.0981 289.046 20.4909 289.696 17.3989C291.27 10.1844 294.741 5.3566 300.111 2.91559C303.041 1.55947 306.729 0.881415 311.177 0.881415C315.571 0.881415 319.233 1.55947 322.162 2.91559C327.586 5.30236 331.058 10.1301 332.577 17.3989C333.282 20.3824 333.635 23.9896 333.635 28.2207C333.635 32.4518 333.282 36.0862 332.577 39.1239C331.058 46.3385 327.586 51.1391 322.162 53.5259ZM357.561 54.5023H346.658V1.61372H356.992L376.845 33.7537V1.61372H387.748V54.5023H377.415L357.561 22.4437V54.5023ZM413.887 54.5023H402.984V1.61372H413.887V54.5023ZM476.926 54.5023H465.779L461.874 44.0873H440.311L436.406 54.5023H425.258L445.519 1.61372H456.666L476.926 54.5023ZM458.049 33.9164L451.052 15.3647L444.054 33.9164H458.049ZM522.201 54.5023H487.62V1.61372H498.523V44.3314H522.201V54.5023Z" fill="url(#paint0_linear_202_689)"/>
<defs>
<linearGradient id="paint0_linear_202_689" x1="261.101" y1="0.800049" x2="261.101" y2="58.5" gradientUnits="userSpaceOnUse">
<stop stop-color="#2ED273" stop-opacity="0.75"/>
<stop offset="1" stop-color="#101311" stop-opacity="0.35"/>
</linearGradient>
</defs>
</svg>
