<svg width="76" height="77" viewBox="0 0 76 77" fill="none" xmlns="http://www.w3.org/2000/svg">
<rect y="0.399902" width="76" height="76" rx="38" fill="url(#paint0_linear_212_1110)"/>
<path d="M58.6217 39.1711C57.7385 40.2134 56.8554 41.2557 55.9777 42.298C55.4456 42.9288 54.9135 43.5541 54.3814 44.185C54.1674 44.4373 53.959 44.7116 53.7176 44.942C52.615 45.9952 51.5014 47.0375 50.3933 48.0853C49.8063 48.6393 49.2249 49.1824 48.5501 49.6212C47.2336 50.4824 45.6866 50.9651 44.1177 51.0529C43.5637 51.0803 42.9987 51.0474 42.4445 51.0309C41.5723 51.0035 40.7001 50.9761 39.8224 50.9487C38.9941 50.9212 38.1657 50.8993 37.3429 50.8719C36.6846 50.8499 36.0483 50.806 35.4174 51.0639C34.7317 51.3436 34.1502 51.9416 33.5852 52.4024C33.3658 52.5834 33.1518 52.7589 32.9324 52.9345C32.8062 52.8028 32.6856 52.6657 32.5594 52.534C32.5265 52.5011 32.4936 52.4627 32.4606 52.4298C32.3674 52.3311 32.2741 52.2323 32.1864 52.1336C30.996 50.8554 29.8056 49.5827 28.6152 48.3046C27.145 46.7247 25.6694 45.1504 24.1993 43.5705C24.1115 43.4718 24.0183 43.3785 23.9305 43.2798C23.8043 43.1481 23.6836 43.011 23.5575 42.8793C23.4423 42.7532 23.3271 42.6325 23.2119 42.5118L23.179 42.4789C23.9908 41.6615 24.7972 40.8442 25.6145 40.0378C26.5361 39.1217 27.8472 38.5348 29.1034 38.2659C30.6448 37.9368 32.2686 38.0575 33.7443 38.617C35.0882 39.1272 36.4267 39.6483 37.7652 40.1585C38.4893 40.4327 39.2573 40.5095 40.0253 40.5095H44.6497C44.9514 40.5095 45.2476 40.515 45.5493 40.5808C46.0815 40.6906 46.5532 40.9648 46.9372 41.3434C46.9537 41.3763 46.9701 41.4037 46.9866 41.4366C46.8604 41.5079 46.7343 41.5792 46.6026 41.656C46.7836 41.7054 46.9647 41.7493 47.1402 41.7987C47.1566 41.848 47.1731 41.8974 47.1896 41.9523C47.2444 42.1388 47.2773 42.3362 47.2883 42.5282C47.3048 42.8903 47.2389 43.2524 47.0799 43.6199C47.0524 43.6802 46.9317 43.8942 46.8604 44.0039C46.7288 44.2178 46.7288 44.2178 46.5368 44.4098C46.4709 44.4757 46.4051 44.5415 46.3338 44.6018C46.3064 44.6238 46.2789 44.6457 46.257 44.6677H46.2515C46.2405 44.6731 46.2296 44.6841 46.2186 44.6896C46.1418 44.739 46.065 44.7884 45.9827 44.8377C45.9498 44.8597 45.9114 44.8761 45.8785 44.8926C45.8785 44.8926 45.7578 44.9529 45.7468 44.9584C45.6591 44.9968 45.4067 45.0736 45.2531 45.1065C45.2147 45.1175 45.1763 45.123 45.1324 45.1285C45.127 45.1285 45.116 45.1285 45.116 45.134C45.0008 45.1449 44.8911 45.1504 44.7759 45.1504C44.2493 45.1614 43.7226 45.1669 43.196 45.1723C42.236 45.1778 41.276 45.1778 40.3161 45.1723C39.2628 45.1669 38.2096 45.1559 37.1563 45.1449C36.7285 45.1394 36.3116 45.5234 36.3335 45.9678C36.3554 46.4176 36.6956 46.7851 37.1563 46.7906C39.2519 46.8071 41.3529 46.829 43.4484 46.8125C44.5565 46.8016 45.6262 46.84 46.641 46.3408C47.5571 45.891 48.2483 45.0681 48.6323 44.1301C48.956 43.3402 49.0054 42.4625 48.8134 41.6451C48.7695 41.4641 48.7146 41.2831 48.6488 41.1075C48.583 40.9375 48.5062 40.7674 48.4184 40.6084C48.7256 40.4328 49.0273 40.2573 49.3345 40.0817C49.7459 39.8458 50.2012 39.6429 50.5304 39.2973C51.0844 38.7048 51.644 38.1124 52.198 37.5199C52.7411 36.9384 53.2732 36.3351 53.8821 35.8194C55.0176 34.8484 56.773 34.3822 58.0566 35.3641C58.7039 35.8578 59.1867 36.4942 59.2745 37.3224C59.3348 38.0136 59.0661 38.6499 58.6217 39.1711Z" fill="#01DA63"/>
<path d="M52.527 17.8979C52.516 17.8869 52.5105 17.8759 52.4996 17.8704C52.4886 17.8595 52.4776 17.8485 52.4721 17.843C51.1336 16.5429 49.2356 15.8352 47.3706 16.0327C46.4161 16.137 45.489 16.4167 44.6606 16.9159C44.0846 17.2615 43.6019 17.7059 43.1301 18.1776L42.609 18.6987C42.1646 18.2379 41.7148 17.7772 41.2156 17.3877C39.6357 16.1534 37.5566 15.7036 35.6092 16.2029C33.788 16.6691 32.1972 17.9856 31.4237 19.7027C30.7215 21.2717 30.6173 23.1148 31.2646 24.7221C31.6376 25.6491 32.1972 26.4335 32.9048 27.1357C33.3656 27.5965 33.8319 28.0628 34.2927 28.5236C35.8177 30.0486 37.3373 31.5681 38.8623 33.0931C39.8935 34.1299 40.9139 35.1832 41.9671 36.198C41.9836 36.2144 42 36.2309 42.0165 36.2473C42.3292 36.56 42.8668 36.56 43.1795 36.2473C44.8306 34.5962 46.4818 32.945 48.1275 31.2993L51.353 28.0738C52.0332 27.3936 52.7683 26.7353 53.3059 25.9399C54.9845 23.4495 54.5951 20.0264 52.527 17.898L52.527 17.8979Z" fill="#01DA63"/>
<path d="M32.9327 55.9298V55.9353C32.9217 55.9846 32.9108 56.0285 32.8998 56.0779C32.8888 56.1273 32.8724 56.1766 32.8559 56.2205C32.8669 56.1876 32.9272 56.0889 32.8504 56.2315C32.8065 56.3138 32.7627 56.3906 32.7133 56.4674C32.7297 56.4399 32.5871 56.599 32.5652 56.6265C32.0002 57.1531 31.4297 57.6852 30.8646 58.2118C30.4861 58.5684 30.1076 58.9195 29.7236 59.276C29.603 59.3912 29.4768 59.5064 29.3561 59.6161C29.3232 59.6435 29.2958 59.6765 29.2628 59.7039C29.2409 59.7258 29.186 59.7697 29.186 59.7752C29.1147 59.8246 29.0324 59.8685 28.9556 59.9123C28.9502 59.9178 28.9337 59.9233 28.9172 59.9288H28.9118H28.9063H28.9008C28.8788 59.9343 28.8569 59.9452 28.8295 59.9507C28.7801 59.9672 28.7307 59.9782 28.6814 59.9891C28.6704 59.9891 28.6265 60.0001 28.5991 60.0001H28.5332C28.4729 60.0001 28.4071 60.0001 28.3467 59.9946H28.3412C28.3083 59.9891 28.248 59.9782 28.2809 59.9836C28.2535 59.9782 28.226 59.9727 28.1986 59.9617C28.1602 59.9507 28.1273 59.9398 28.0889 59.9288C28.0779 59.9288 28.0724 59.9233 28.067 59.9233C27.9902 59.8849 27.9188 59.841 27.8475 59.7971C27.8366 59.7917 27.8256 59.7862 27.8201 59.7807C27.7652 59.7313 27.7104 59.6765 27.6555 59.6216C27.6062 59.5667 27.5513 59.5119 27.5019 59.457C27.1289 59.0566 26.7559 58.6561 26.3883 58.2612C24.9949 56.7691 23.6016 55.277 22.2138 53.7849C20.771 52.2379 19.3283 50.691 17.8857 49.144L16.5911 47.7506C16.4978 47.6519 16.4046 47.5477 16.3058 47.4489C16.3003 47.4434 16.2894 47.4325 16.2839 47.427C16.2565 47.3995 16.24 47.3831 16.2345 47.3831C16.229 47.3776 16.2235 47.3611 16.2126 47.3447C16.1632 47.2679 16.1193 47.1911 16.0809 47.1088C16.0809 47.1033 16.0809 47.0978 16.0754 47.0923C16.059 47.043 16.0425 46.9991 16.0315 46.9497C16.0206 46.9004 16.0041 46.7358 16.0041 46.7906C15.9986 46.6974 15.9986 46.6096 16.0041 46.5164C16.0041 46.5109 16.0041 46.5054 16.0096 46.4999C16.0206 46.4505 16.0315 46.4012 16.048 46.3573C16.0535 46.3408 16.059 46.3244 16.0645 46.3079C16.059 46.3134 16.0754 46.275 16.0809 46.2476C16.0809 46.2421 16.0864 46.2366 16.0864 46.2366C16.1303 46.1543 16.1742 46.0775 16.2235 46.0007C16.2071 46.0336 16.3552 45.8636 16.3771 45.8416C16.4265 45.7923 16.4759 45.7484 16.5252 45.7045C16.8379 45.4083 17.1561 45.1175 17.4688 44.8268C18.1764 44.1685 18.884 43.5102 19.5917 42.8465C19.6191 42.8191 19.6466 42.7916 19.6795 42.7642C19.685 42.7587 19.6904 42.7532 19.7014 42.7477C19.7234 42.7258 19.7343 42.7148 19.7398 42.7093C19.7398 42.7093 19.7453 42.7039 19.7563 42.6984C19.8331 42.649 19.9099 42.6051 19.9867 42.5612C19.9922 42.5558 19.9976 42.5558 20.0031 42.5503C20.1074 42.4899 20.047 42.5338 20.0086 42.5503C20.0525 42.5338 20.0964 42.5174 20.1458 42.5064C20.2006 42.4899 20.4036 42.468 20.3323 42.468C20.42 42.4625 20.5078 42.4625 20.5956 42.468H20.6011C20.6504 42.479 20.6943 42.4899 20.7437 42.5009C20.7931 42.5119 20.8369 42.5283 20.8863 42.5448C20.8534 42.5338 20.7547 42.4735 20.8973 42.5503C20.9796 42.5942 21.0509 42.638 21.1277 42.6874L21.1441 42.7039C21.1935 42.7477 21.2429 42.7916 21.2868 42.841C21.4239 42.9836 21.5611 43.1317 21.6982 43.2799C21.8847 43.4773 22.0712 43.6803 22.2577 43.8778C22.329 43.9546 22.3949 44.0259 22.4662 44.1027C22.4881 44.1246 22.5101 44.1521 22.532 44.174C23.7553 45.485 24.9731 46.7962 26.1964 48.1017C27.6336 49.6431 29.0763 51.1901 30.5136 52.7315C30.733 52.9674 30.9469 53.1978 31.1663 53.4337C31.2706 53.5434 31.3748 53.6586 31.479 53.7683C31.5229 53.8177 31.5723 53.8671 31.6162 53.9164C31.7039 54.0097 31.7862 54.1029 31.874 54.1907C32.055 54.3827 32.2361 54.5802 32.4171 54.7722C32.4884 54.8435 32.5542 54.9203 32.6255 54.9916C32.6365 55.0081 32.653 55.019 32.6639 55.0355C32.6914 55.0684 32.7078 55.0739 32.7078 55.0794C32.7133 55.0849 32.7188 55.1013 32.7352 55.1233C32.7791 55.2001 32.8285 55.2714 32.8614 55.3482C32.8504 55.3372 32.9053 55.4798 32.9108 55.5182C32.9218 55.5621 32.9327 55.606 32.9382 55.6499V55.6663C32.9327 55.7541 32.9382 55.8419 32.9327 55.9297L32.9327 55.9298Z" fill="#01DA63"/>
<defs>
<linearGradient id="paint0_linear_212_1110" x1="38" y1="0.399902" x2="38" y2="76.3999" gradientUnits="userSpaceOnUse">
<stop stop-color="#1A2C23"/>
<stop offset="1" stop-color="#1A2C23" stop-opacity="0"/>
</linearGradient>
</defs>
</svg>
