<svg width="76" height="77" viewBox="0 0 76 77" fill="none" xmlns="http://www.w3.org/2000/svg">
<rect y="0.399902" width="76" height="76" rx="38" fill="url(#paint0_linear_212_1080)"/>
<path d="M55.7347 32.0971H57.5958C57.592 28.8901 56.3163 25.8151 54.0485 23.5473C51.7807 21.2794 48.7058 20.0037 45.4986 20V21.8611C48.2126 21.8644 50.8139 22.9437 52.7332 24.8626C54.652 26.7818 55.7313 29.3832 55.7347 32.0971Z" fill="#01DA63"/>
<path d="M51.0819 32.0962H52.943C52.9409 30.1225 52.1558 28.2303 50.76 26.8349C49.3646 25.439 47.4723 24.6539 45.4986 24.6519V26.513C46.9788 26.5146 48.3983 27.1033 49.4451 28.1498C50.4916 29.1966 51.0802 30.6161 51.0819 32.0962Z" fill="#01DA63"/>
<path d="M45.4986 29.3054V32.0971H48.2903C48.2903 31.3568 47.9962 30.6464 47.4727 30.123C46.9493 29.5997 46.2388 29.3054 45.4986 29.3054Z" fill="#01DA63"/>
<path d="M25.9572 51.6387C25.9572 53.6942 24.2905 55.3609 22.235 55.3609C20.1795 55.3609 18.5128 53.6942 18.5128 51.6387C18.5128 49.5832 20.1795 47.9165 22.235 47.9165C24.2905 47.9165 25.9572 49.5832 25.9572 51.6387Z" fill="#01DA63"/>
<path d="M58.5265 51.6387C58.5265 53.6942 56.8598 55.3609 54.8043 55.3609C52.7488 55.3609 51.0821 53.6942 51.0821 51.6387C51.0821 49.5832 52.7488 47.9165 54.8043 47.9165C56.8598 47.9165 58.5265 49.5832 58.5265 51.6387Z" fill="#01DA63"/>
<path d="M63.9714 45.6134L63.4933 43.7028C63.4052 43.3543 63.1252 43.0872 62.7729 43.0153L59.3299 42.3266L47.035 41.3811L38.0019 35.0579C37.8462 34.9478 37.6596 34.8892 37.469 34.8897H22.9099C22.6922 34.8897 22.4816 34.9661 22.3141 35.1057L17.1135 39.4389L12.6364 40.9278C12.2555 41.0549 11.9988 41.4122 12 41.8139V49.0955C12.0004 49.5579 12.3406 49.95 12.7984 50.0156L16.7533 50.5806L16.76 50.5603C16.8169 50.2749 16.8962 49.9949 16.998 49.7228C17.0138 49.6779 17.0288 49.6297 17.0462 49.5898L17.0466 49.5894C17.1484 49.3327 17.2693 49.0838 17.4084 48.845C17.4334 48.8022 17.4587 48.7611 17.4849 48.7203C17.6303 48.4823 17.7931 48.2551 17.9722 48.0411C17.9925 48.0162 18.0158 47.9938 18.0374 47.9697V47.9693C18.2227 47.7553 18.4246 47.5559 18.6406 47.3731L18.6705 47.3461H18.6701C18.8915 47.1646 19.1258 47.0001 19.3717 46.8538C19.4091 46.8314 19.4453 46.8073 19.4835 46.7857C19.7249 46.649 19.9762 46.5307 20.2354 46.4314C20.2828 46.4127 20.3285 46.3961 20.3787 46.3782C20.6459 46.2831 20.92 46.2083 21.1984 46.1547C21.2382 46.1472 21.2802 46.1426 21.3213 46.136V46.1364C21.6238 46.0845 21.9295 46.0579 22.2361 46.0562C22.5501 46.0583 22.8638 46.0866 23.1733 46.141C23.2107 46.1476 23.2476 46.1514 23.285 46.1588L23.2846 46.1584C23.5696 46.2141 23.8496 46.2914 24.1221 46.3902L24.26 46.4413C24.5222 46.5439 24.7764 46.6661 25.0203 46.8061L25.1411 46.8796C25.3846 47.0275 25.6164 47.1932 25.8345 47.3756C25.8586 47.396 25.8802 47.4184 25.9034 47.4388V47.4392C26.1269 47.6319 26.3351 47.8426 26.5249 48.069L26.5353 48.081C26.7227 48.3099 26.8922 48.5534 27.0413 48.8088C27.06 48.8412 27.0812 48.872 27.0999 48.9019C27.2399 49.1503 27.3595 49.4095 27.4584 49.6771C27.4762 49.7228 27.4929 49.7701 27.5086 49.8138C27.6034 50.085 27.6765 50.3638 27.7272 50.6467C27.7272 50.667 27.7392 50.6849 27.7429 50.7053H49.2998C49.2998 50.6849 49.3118 50.667 49.3155 50.6467C49.3662 50.3638 49.4393 50.085 49.5341 49.8138C49.5498 49.7672 49.5665 49.7207 49.5843 49.6771C49.6832 49.4096 49.8033 49.1503 49.9428 48.9019C49.9615 48.8682 49.9827 48.8375 50.0014 48.8088C50.1505 48.5534 50.32 48.3099 50.5074 48.081L50.5178 48.069C50.7076 47.8426 50.9158 47.6319 51.1393 47.4392C51.1625 47.4188 51.1841 47.3964 51.2082 47.376V47.3756C51.4263 47.1933 51.6581 47.0275 51.9016 46.8796L52.0224 46.8061C52.2663 46.6661 52.5205 46.5439 52.7827 46.4413L52.9206 46.3902C53.1931 46.2914 53.4731 46.2141 53.7581 46.1584C53.7955 46.1509 53.8324 46.1472 53.8698 46.1406V46.141C54.4892 46.028 55.124 46.028 55.7438 46.141C55.7812 46.1476 55.8182 46.1514 55.8555 46.1588V46.1584C56.1401 46.2141 56.4201 46.2914 56.693 46.3902L56.831 46.4413H56.8305C57.0927 46.5439 57.3469 46.6661 57.5908 46.8061L57.7117 46.8796H57.7121C57.9551 47.0275 58.1869 47.1932 58.405 47.3756C58.4291 47.396 58.4507 47.4184 58.474 47.4388V47.4392C58.6979 47.6319 58.9056 47.8426 59.0954 48.069L59.1058 48.081C59.2936 48.3099 59.4627 48.5534 59.6122 48.8088C59.6309 48.8412 59.6521 48.872 59.6708 48.9019C59.8104 49.1503 59.93 49.4095 60.0289 49.6771C60.0468 49.7228 60.0634 49.7701 60.0792 49.8138C60.1739 50.085 60.247 50.3638 60.2977 50.6467C60.2977 50.667 60.3097 50.6849 60.3135 50.7053H61.1019C61.4546 50.7065 61.7774 50.5067 61.9336 50.1906L63.9028 46.2515C64.0012 46.0538 64.0257 45.8278 63.9726 45.6134L63.9714 45.6134ZM30.6099 48.8479H28.7488V46.9868H30.6099V48.8479ZM41.7765 48.8479H32.471V46.9868H41.7765V48.8479Z" fill="#01DA63"/>
<defs>
<linearGradient id="paint0_linear_212_1080" x1="38" y1="0.399902" x2="38" y2="76.3999" gradientUnits="userSpaceOnUse">
<stop stop-color="#1A2C23"/>
<stop offset="1" stop-color="#1A2C23" stop-opacity="0"/>
</linearGradient>
</defs>
</svg>
