<svg width="76" height="77" viewBox="0 0 76 77" fill="none" xmlns="http://www.w3.org/2000/svg">
<rect y="0.399902" width="76" height="76" rx="38" fill="url(#paint0_linear_212_1070)"/>
<path d="M32.8639 27.7351H43.1289C43.9387 27.7351 44.5954 28.5449 44.5954 29.2015V32.1344C44.5954 32.9442 43.9387 33.6008 43.1289 33.6008H32.8639C32.0541 33.6008 31.3975 32.791 31.3975 32.1344V29.2015C31.3975 28.3917 32.0541 27.7351 32.8639 27.7351Z" fill="#01DA63"/>
<path d="M32.8639 35.0671H43.1289C43.9387 35.0671 44.5954 35.8769 44.5954 36.5336V39.4664C44.5954 40.2762 43.9387 40.9328 43.1289 40.9328H32.8639C32.0541 40.9328 31.3975 40.123 31.3975 39.4664V36.5336C31.3975 35.7238 32.0541 35.0671 32.8639 35.0671Z" fill="#01DA63"/>
<path d="M32.8639 42.3992H43.1289C43.9387 42.3992 44.5954 43.209 44.5954 43.8656V46.7984C44.5954 47.6083 43.9387 48.2649 43.1289 48.2649H32.8639C32.0541 48.2649 31.3975 47.4551 31.3975 46.7984V43.8656C31.3975 43.0558 32.0541 42.3992 32.8639 42.3992Z" fill="#01DA63"/>
<path d="M36.897 21.6519V26.2686H39.0967V21.6519C39.9444 21.3089 40.5841 20.5897 40.8256 19.7076C41.0672 18.8255 40.8833 17.8811 40.3288 17.1541C39.7739 16.4268 38.9114 16 37.9969 16C37.0823 16 36.2198 16.4268 35.665 17.1541C35.1105 17.8811 34.9266 18.8254 35.1681 19.7076C35.4097 20.5897 36.0493 21.3089 36.897 21.6519Z" fill="#01DA63"/>
<path d="M25.6592 27.218L29.9314 31.4899V29.2016C29.9344 28.9577 29.9681 28.7155 30.0319 28.4801L27.2146 25.6625C27.5717 24.8206 27.5154 23.8602 27.0624 23.0655C26.6094 22.2707 25.8117 21.733 24.9053 21.6112C23.9987 21.4891 23.0874 21.7971 22.4406 22.4439C21.7938 23.0907 21.4857 24.002 21.6079 24.9087C21.7296 25.815 22.2674 26.6128 23.0621 27.0658C23.8569 27.5188 24.8173 27.5751 25.6592 27.218Z" fill="#01DA63"/>
<path d="M18.9329 40.9329C19.5165 40.9326 20.0868 40.7578 20.5705 40.4314C21.0543 40.1047 21.4298 39.6409 21.6484 39.0998H29.9311V36.9002H21.6484C21.3806 36.24 20.8815 35.6996 20.2445 35.3804C19.6075 35.0612 18.8759 34.985 18.1865 35.166C17.4975 35.3473 16.8978 35.7732 16.4998 36.364C16.1018 36.9552 15.9329 37.6711 16.0242 38.3777C16.1155 39.0841 16.4615 39.7335 16.9967 40.2035C17.5318 40.6739 18.2202 40.9331 18.9328 40.9328L18.9329 40.9329Z" fill="#01DA63"/>
<path d="M49.4027 53.5542C49.9065 54.059 50.5769 54.3631 51.2885 54.4092C52.0001 54.4557 52.7042 54.2413 53.2691 53.8059C53.8341 53.3706 54.221 52.7444 54.3575 52.0446C54.4943 51.3447 54.3712 50.6187 54.0115 50.003C53.6518 49.3873 53.0799 48.9238 52.403 48.6993C51.7261 48.4744 50.9907 48.5042 50.3343 48.7824L46.062 44.5105V46.7989C46.0591 47.0427 46.0254 47.285 45.9616 47.5203L48.7789 50.3376V50.3379C48.5507 50.8751 48.4882 51.4682 48.5995 52.0413C48.7104 52.6142 48.9903 53.1411 49.4027 53.5542Z" fill="#01DA63"/>
<path d="M57.06 35.0671C56.4764 35.0675 55.9059 35.2423 55.422 35.5686C54.9386 35.8953 54.5631 36.3591 54.3445 36.9002H46.0618V39.0998H54.3445C54.6122 39.7601 55.1114 40.3005 55.7484 40.6196C56.3854 40.9388 57.117 41.0151 57.8063 40.834C58.4954 40.6527 59.095 40.2269 59.4931 39.636C59.8911 39.0449 60.06 38.329 59.9687 37.6223C59.8774 36.916 59.5314 36.2665 58.9962 35.7965C58.4611 35.3261 57.7726 35.0669 57.0601 35.0672L57.06 35.0671Z" fill="#01DA63"/>
<path d="M46.0618 29.2015V31.4899L50.334 27.2177V27.218C51.1759 27.5751 52.1363 27.5188 52.931 27.0658C53.7258 26.6128 54.2636 25.8151 54.3853 24.9087C54.5074 24.0021 54.1994 23.0908 53.5526 22.444C52.9058 21.7971 51.9945 21.4891 51.0878 21.6112C50.1815 21.733 49.3837 22.2708 48.9307 23.0655C48.4777 23.8603 48.4214 24.8206 48.7785 25.6625L45.9612 28.4801C46.0251 28.7155 46.0588 28.9577 46.0618 29.2015Z" fill="#01DA63"/>
<path d="M29.9311 46.7986V44.5103L25.6589 48.7825V48.7822C24.817 48.4251 23.8566 48.4814 23.0619 48.9344C22.2671 49.3874 21.7293 50.1851 21.6076 51.0914C21.4855 51.9981 21.7935 52.9094 22.4403 53.5562C23.0871 54.203 23.9984 54.5111 24.9051 54.3889C25.8114 54.2672 26.6091 53.7294 27.0621 52.9347C27.5152 52.1399 27.5715 51.1796 27.2143 50.3377L30.0316 47.52C29.9678 47.2847 29.934 47.0425 29.9311 46.7986Z" fill="#01DA63"/>
<path d="M36.897 49.7314V54.3481C36.0493 54.6911 35.4097 55.4103 35.1681 56.2924C34.9265 57.1745 35.1105 58.1189 35.665 58.8459C36.2198 59.5732 37.0823 60 37.9968 60C38.9114 60 39.7739 59.5732 40.3287 58.8459C40.8832 58.1189 41.0672 57.1746 40.8256 56.2924C40.584 55.4103 39.9444 54.6911 39.0966 54.3481V49.7314H36.897Z" fill="#01DA63"/>
<defs>
<linearGradient id="paint0_linear_212_1070" x1="38" y1="0.399902" x2="38" y2="76.3999" gradientUnits="userSpaceOnUse">
<stop stop-color="#1A2C23"/>
<stop offset="1" stop-color="#1A2C23" stop-opacity="0"/>
</linearGradient>
</defs>
</svg>
