<svg width="76" height="77" viewBox="0 0 76 77" fill="none" xmlns="http://www.w3.org/2000/svg">
<rect y="0.399902" width="76" height="76" rx="38" fill="url(#paint0_linear_212_1120)"/>
<path d="M41.313 22.3751V18.625C41.313 18.3125 41.0005 18 40.688 18H18.625C18.2501 18 18 18.3125 18 18.625V22.3751C18 22.6876 18.25 23 18.625 23H40.688C41.0629 23 41.313 22.6876 41.313 22.3751Z" fill="#01DA63"/>
<path d="M19.8129 57.375C19.8129 57.6875 20.0629 57.9999 20.4379 57.9999H57.376C57.7509 57.9999 58.001 57.6875 58.001 57.375V47.9375H19.8128L19.8129 57.375ZM50.1878 49.8122H51.4378V51.0621H50.1878V49.8122ZM50.1878 53.5623H51.4378V54.8122H50.1878V53.5623ZM42.2501 49.8122H43.5001V51.0621H42.2501V49.8122ZM42.2501 53.5623H43.5001V54.8122H42.2501V53.5623ZM34.3124 49.8122H35.5623V51.0621H34.3124V49.8122ZM34.3124 53.5623H35.5623V54.8122H34.3124V53.5623ZM26.3754 49.8122H27.6253V51.0621H26.3754V49.8122ZM26.3754 53.5623H27.6253V54.8122H26.3754V53.5623Z" fill="#01DA63"/>
<path d="M26.0628 30.5623L28.3754 32.8749C29.1256 32.4376 29.9378 32.4376 30.7504 32.8749L33.063 30.5623C30.938 28.9372 28.0629 28.9372 26.0628 30.5623Z" fill="#01DA63"/>
<path d="M29.5006 33.8125C28.8756 33.8125 28.3755 34.3126 28.3755 34.9375C28.3755 35.5625 28.8756 36.0626 29.5006 36.0626C30.1255 36.0626 30.6256 35.5625 30.6256 34.9375C30.6256 34.3123 30.1255 33.8125 29.5006 33.8125Z" fill="#01DA63"/>
<path d="M27.1251 34.9383L24 34.1257C23.625 36.6883 25.0626 39.1882 27.5 40.1257L28.3126 37.0005C27.6252 36.5631 27.1251 35.8133 27.1251 34.9383Z" fill="#01DA63"/>
<path d="M57.6879 35.4374C57.5003 35.3126 57.2506 35.3126 57.063 35.4374L48.7503 40.6251V36C48.7503 35.75 48.6254 35.5626 48.4378 35.4375C48.2502 35.3126 48.0004 35.3126 47.8128 35.4375L39.5002 40.6251L39.4999 24.2502H19.8124V46.6882H58.0006V36.0007C58.0006 35.7506 57.8755 35.5009 57.6881 35.4382L57.6879 35.4374ZM31.2502 41.5001C30.9377 41.5626 30.5628 41.3753 30.5 41.0628L29.5001 37.3127L28.5003 41.0628C28.4378 41.3753 28.0629 41.5629 27.7501 41.5001C24.1251 40.5003 21.9375 36.7502 22.9377 33.1249C23.0001 32.8124 23.375 32.5623 23.6878 32.6875L27.4379 33.6874L24.688 30.9374C24.438 30.6874 24.438 30.3125 24.688 30.0624C27.3755 27.375 31.6881 27.375 34.3133 30.0624C34.5634 30.3125 34.5634 30.6874 34.3133 30.9374L31.5634 33.6874L35.3135 32.6875C35.626 32.6251 36.0009 32.8124 36.0636 33.1249C37.0629 36.8123 34.938 40.5624 31.2503 41.5001H31.2502Z" fill="#01DA63"/>
<path d="M31.8754 34.9382C31.8754 35.8133 31.3753 36.5634 30.6879 37.0008L31.5005 40.1259C33.9379 39.1884 35.3754 36.6883 35.0006 34.126L31.8754 34.9382Z" fill="#01DA63"/>
<defs>
<linearGradient id="paint0_linear_212_1120" x1="38" y1="0.399902" x2="38" y2="76.3999" gradientUnits="userSpaceOnUse">
<stop stop-color="#1A2C23"/>
<stop offset="1" stop-color="#1A2C23" stop-opacity="0"/>
</linearGradient>
</defs>
</svg>
