<svg width="76" height="77" viewBox="0 0 76 77" fill="none" xmlns="http://www.w3.org/2000/svg">
<rect y="0.399902" width="76" height="76" rx="38" fill="url(#paint0_linear_212_1026)"/>
<path d="M27.8631 26.2192H55.2602C56.7669 26.2192 57.9998 24.9863 57.9998 23.4796V20.74C57.9998 19.2333 56.7669 18.0005 55.2602 18.0005L27.8631 18C26.3564 18 25.1235 19.2329 25.1235 20.7396V23.4792C25.1231 24.9864 26.3559 26.2192 27.8631 26.2192ZM34.9861 20.7396H39.0958C39.9177 20.7396 40.4658 21.2877 40.4658 22.1096C40.4658 22.9315 39.9177 23.4796 39.0958 23.4796H34.9861C34.1642 23.4796 33.6161 22.9315 33.6161 22.1096C33.6166 21.2877 34.1642 20.7396 34.9861 20.7396ZM30.8765 20.7396C31.6984 20.7396 32.2466 21.2877 32.2466 22.1096C32.2466 22.9315 31.6984 23.4796 30.8765 23.4796C30.0546 23.4796 29.5065 22.9315 29.5065 22.1096C29.5069 21.2877 30.0546 20.7396 30.8765 20.7396Z" fill="#01DA63"/>
<path d="M43.4796 48.8226L43.3425 48.6854C43.0687 48.5483 42.7944 48.5483 42.5206 48.6854L32.3837 52.795C31.9727 53.0689 31.4246 53.0689 31.0136 53.0689L27.315 51.5622C26.904 51.425 26.7669 51.0141 26.904 50.6031C27.0412 50.3293 27.315 50.1921 27.5888 50.1921H27.8631L31.5617 51.6988C32.2465 52.1098 33.0684 52.1098 33.7537 51.6988C34.0275 51.5617 34.3018 51.1507 34.3018 50.7398V50.1917V49.9178C34.1647 49.3697 33.7537 48.8221 33.0689 48.5478L25.9454 45.6711C25.8083 45.5339 25.5345 45.5339 25.3973 45.5339C24.1644 45.5339 22.9315 45.9449 21.9725 46.904C21.6987 47.1778 21.5615 47.3149 21.4244 47.5887L18.6848 49.3697C18.2738 49.6436 18 50.1917 18 50.7398L18.6848 54.5756C18.8219 55.2603 19.5067 55.8084 20.1915 55.6713H20.3286L21.5615 55.3975C24.0273 54.8494 26.6302 55.9456 29.096 56.9042L30.877 57.589C31.2879 57.7261 31.836 57.8628 32.247 57.8628C33.0689 57.8628 33.8908 57.589 34.4389 57.178L43.6172 52.5203C44.0282 52.3831 44.302 52.1093 44.4392 51.6984C44.5763 51.4245 44.713 51.1503 44.713 50.7393C44.713 50.1912 44.4392 49.7802 44.1649 49.3693C43.8906 49.0964 43.7535 48.9592 43.4796 48.8226Z" fill="#01DA63"/>
<path d="M27.8631 37.178H55.2602C56.7669 37.178 57.9998 35.9451 57.9998 34.4384V31.6988C57.9998 30.1921 56.7669 28.9592 55.2602 28.9592L27.8631 28.9587C26.3564 28.9587 25.1235 30.1916 25.1235 31.6983V34.4379C25.1231 35.9451 26.3559 37.178 27.8631 37.178ZM34.9861 31.6983H39.0958C39.9177 31.6983 40.4658 32.2464 40.4658 33.0683C40.4658 33.8903 39.9177 34.4384 39.0958 34.4384H34.9861C34.1642 34.4384 33.6161 33.8903 33.6161 33.0683C33.6166 32.2464 34.1642 31.6983 34.9861 31.6983ZM30.8765 31.6983C31.6984 31.6983 32.2466 32.2464 32.2466 33.0683C32.2466 33.8903 31.6984 34.4384 30.8765 34.4384C30.0546 34.4384 29.5065 33.8903 29.5065 33.0683C29.5069 32.2464 30.0546 31.6983 30.8765 31.6983Z" fill="#01DA63"/>
<path d="M55.2602 39.9175H27.8631C26.3564 39.9175 25.1235 41.1504 25.1235 42.6571H25.5345C26.0826 42.6571 26.4936 42.7942 27.0412 42.9309L29.507 44.0266L31.8356 44.9857L34.0275 45.9448C34.9866 46.3557 35.8085 47.1777 36.3562 48.1367L41.2877 46.0819C41.6987 45.9448 42.2468 45.8081 42.7944 45.8081C43.3425 45.8081 43.7535 45.9452 44.1644 46.0819C44.4383 46.2191 44.5754 46.2191 44.8492 46.3557C45.3973 46.6296 45.8083 47.0405 46.0821 47.4515C46.2193 47.7253 46.3559 47.8624 46.6302 48.1363L55.2604 48.1367C56.7671 48.1367 58 46.9038 58 45.3971V42.6575C58 41.1504 56.7671 39.9175 55.2604 39.9175L55.2602 39.9175Z" fill="#01DA63"/>
<defs>
<linearGradient id="paint0_linear_212_1026" x1="38" y1="0.399902" x2="38" y2="76.3999" gradientUnits="userSpaceOnUse">
<stop stop-color="#1A2C23"/>
<stop offset="1" stop-color="#1A2C23" stop-opacity="0"/>
</linearGradient>
</defs>
</svg>
