<svg width="76" height="77" viewBox="0 0 76 77" fill="none" xmlns="http://www.w3.org/2000/svg">
<rect y="0.399902" width="76" height="76" rx="38" fill="url(#paint0_linear_212_1100)"/>
<path d="M61.947 45.8137C61.5735 43.4138 59.867 32.7469 59.7602 32.3736C59.3335 29.8669 57.6802 27.7869 55.4403 26.7735L54.8536 25.0134C54.6936 24.4799 54.0537 24 53.467 24H50.8003C50.2136 24 49.5737 24.4267 49.4137 25.0134L48.7203 27.1466C48.1868 27.4665 47.6537 27.8401 47.2269 28.2668L28.8268 28.2672C28.4001 27.8405 27.867 27.4673 27.3334 27.147L26.64 25.0138C26.48 24.4803 25.8401 24.0004 25.2534 24.0004H22.5867C22 24.0004 21.3601 24.4271 21.2001 25.0138L20.6134 26.7738C18.3734 27.7873 16.7202 29.8672 16.2935 32.374C16.1867 32.7471 14.4266 43.4141 14.0532 45.8141C14 46.0808 14 46.3476 14 46.6139C14 49.3874 16.2932 51.6805 19.0666 51.6805C20.9866 51.6805 22.64 50.614 23.4933 49.0671C23.7065 48.6404 25.4133 45.6006 27.1198 42.6135H28.1864C28.8263 44.16 30.3732 45.2802 32.1332 45.2802C33.8932 45.2802 35.4398 44.16 36.08 42.6135H39.92C40.5599 44.16 42.1068 45.2802 43.8668 45.2802C45.6268 45.2802 47.1734 44.16 47.8136 42.6135H48.8802C50.5334 45.6001 52.2403 48.6403 52.5067 49.0671C53.3601 50.6136 55.0134 51.6805 56.9334 51.6805C59.7068 51.6805 62 49.3874 62 46.6139C62 46.3475 62 46.0808 61.9468 45.8141L61.947 45.8137ZM22 28.7469C22 28.427 22.2132 28.2134 22.5335 28.2134H24.6667C24.9866 28.2134 25.2001 28.4266 25.2001 28.7469V31.2004L23.6 32.8005L21.9999 31.2004L22 28.7469ZM18.7998 35.1469C18.4798 35.1469 18.2663 34.9337 18.2663 34.6134V32.4802C18.2663 32.1603 18.4795 31.9467 18.7998 31.9467H21.2533L22.8534 33.5468L21.2533 35.1469L18.7998 35.1469ZM25.2001 38.3471C25.2001 38.667 24.987 38.8806 24.6666 38.8806H22.5335C22.2135 38.8806 22 38.6674 22 38.3471V35.8935L23.6001 34.2934L25.2002 35.8935L25.2001 38.3471ZM28.9334 34.6134C28.9334 34.9334 28.7202 35.1469 28.3999 35.1469H25.9464L24.3463 33.5468L25.9464 31.9467H28.3999C28.7198 31.9467 28.9334 32.1599 28.9334 32.4802V34.6134ZM32.1332 43.147C30.9599 43.147 30.0001 42.1872 30.0001 41.0138C30.0001 39.8405 30.9599 38.8807 32.1332 38.8807C33.3066 38.8807 34.2664 39.8405 34.2664 41.0138C34.2668 42.1872 33.3066 43.147 32.1332 43.147ZM43.8667 43.147C42.6933 43.147 41.7335 42.1872 41.7335 41.0138C41.7335 39.8405 42.6933 38.8807 43.8667 38.8807C45.04 38.8807 45.9998 39.8405 45.9998 41.0138C45.9998 42.1872 45.04 43.147 43.8667 43.147ZM52.3999 27.9469C53.4133 27.9469 54.2667 28.8003 54.2667 29.8138C54.2667 30.8272 53.4133 31.6806 52.3999 31.6806C51.3864 31.6806 50.533 30.8272 50.533 29.8138C50.5334 28.8003 51.3864 27.9469 52.3999 27.9469ZM48.6666 35.4138C47.6532 35.4138 46.7997 34.5604 46.7997 33.5469C46.7997 32.5335 47.6532 31.6801 48.6666 31.6801C49.68 31.6801 50.5335 32.5335 50.5335 33.5469C50.5335 34.5604 49.68 35.4138 48.6666 35.4138ZM52.3999 39.1471C51.3864 39.1471 50.533 38.2936 50.533 37.2802C50.533 36.2668 51.3864 35.4133 52.3999 35.4133C53.4133 35.4133 54.2667 36.2668 54.2667 37.2802C54.2667 38.2936 53.4133 39.1471 52.3999 39.1471ZM56.1331 35.4138C55.1197 35.4138 54.2663 34.5604 54.2663 33.5469C54.2663 32.5335 55.1197 31.6801 56.1331 31.6801C57.1466 31.6801 58 32.5335 58 33.5469C58 34.5604 57.1466 35.4138 56.1331 35.4138Z" fill="#01DA63"/>
<defs>
<linearGradient id="paint0_linear_212_1100" x1="38" y1="0.399902" x2="38" y2="76.3999" gradientUnits="userSpaceOnUse">
<stop stop-color="#1A2C23"/>
<stop offset="1" stop-color="#1A2C23" stop-opacity="0"/>
</linearGradient>
</defs>
</svg>
