<svg width="76" height="77" viewBox="0 0 76 77" fill="none" xmlns="http://www.w3.org/2000/svg">
<rect y="0.399902" width="76" height="76" rx="38" fill="url(#paint0_linear_212_1090)"/>
<path d="M42.8356 52.4536C41.349 53.2324 39.8615 54.009 38.3753 54.7884C38.1716 54.8951 37.9972 54.9736 37.748 54.8414C35.6104 53.7068 33.4635 52.5891 31.3203 51.4647C31.2941 51.4509 31.2788 51.4165 31.2319 51.3606C31.72 51.0803 32.2029 50.8044 32.6841 50.5261C34.3612 49.5565 36.0392 48.5885 37.7124 47.612C37.9075 47.4981 38.0538 47.449 38.2767 47.5793C40.4366 48.8419 42.6048 50.0905 44.8531 51.3904C44.144 51.7646 43.4906 52.1106 42.8356 52.4537L42.8356 52.4536ZM45.6964 52.8367C43.7129 53.8767 41.7897 54.8849 39.8189 55.9181C42.4159 57.2783 44.9549 58.6078 47.6137 60C46.9558 57.5425 46.3299 55.2045 45.6964 52.8367ZM28.4218 59.999C31.08 58.6074 33.619 57.278 36.2163 55.9181C34.239 54.8824 32.3093 53.8715 30.3369 52.838C29.6969 55.23 29.0752 57.5559 28.4218 59.999ZM36.3495 46.4721C35.0555 45.7254 33.8492 45.0295 32.6199 44.3201C32.1711 45.9984 31.7364 47.6238 31.3017 49.2487C31.3334 49.2746 31.3655 49.3008 31.3973 49.3267C33.0213 48.3904 34.6456 47.4542 36.3495 46.4721ZM44.7769 49.4132C44.3071 47.6552 43.8672 46.01 43.4151 44.3191C42.176 45.0351 40.9592 45.7379 39.6894 46.4719C41.3986 47.4599 43.0292 48.4027 44.7769 49.4133V49.4132ZM34.7179 36.473C34.3935 37.694 34.0717 38.9072 33.721 40.2275C34.7568 39.413 35.7035 38.6685 36.6803 37.9006C36.023 37.3994 35.4531 36.8632 34.7179 36.473ZM42.3051 40.1836C41.9542 38.8771 41.6304 37.6701 41.2919 36.4094C40.646 36.9185 40.0446 37.3925 39.3998 37.9009C40.3704 38.6633 41.2998 39.3936 42.3051 40.1836ZM35.4063 34.7742C36.2876 35.4538 37.161 36.1436 38.0415 36.833C38.857 36.1914 39.6361 35.5615 40.4352 34.9582C40.7069 34.7529 40.7671 34.568 40.6751 34.2279C39.9893 31.6898 39.3317 29.1443 38.6631 26.6017C38.6484 26.5457 38.6334 26.4897 38.6186 26.4337C38.5466 26.1647 38.6933 25.8936 38.9506 25.7879C39.9991 25.3571 40.7019 24.2444 40.498 23.0092C40.3255 21.9656 39.496 21.122 38.4546 20.9351C36.8548 20.648 35.4488 21.8854 35.4488 23.4355C35.4488 24.5098 36.1248 25.4324 37.0725 25.8023C37.3344 25.9044 37.4824 26.1807 37.41 26.4524C37.4064 26.4655 37.4031 26.4786 37.3995 26.4914C36.7137 29.0625 36.025 31.6329 35.3421 34.205C35.292 34.3955 35.1738 34.5948 35.4062 34.7742L35.4063 34.7742ZM38.2402 45.378C39.7477 44.5039 41.2555 43.6303 42.8233 42.7215C41.1954 41.4435 39.6228 40.2087 38.037 38.9637C36.432 40.225 34.8499 41.4684 33.2317 42.7395C34.8001 43.6443 36.3249 44.52 37.8432 45.4065C38.0033 45.4998 38.1122 45.452 38.2402 45.378ZM47.0456 19.0534C46.5509 17.9832 45.8814 17.0326 45.0503 16.1972C44.7946 15.9402 44.4371 15.9356 44.1815 16.1762C43.9199 16.4224 43.913 16.7828 44.1654 17.0588C44.2234 17.1223 44.2849 17.1822 44.3425 17.246C46.4232 19.5448 47.1309 22.2202 46.4847 25.2411C46.14 26.8527 45.3403 28.2339 44.1853 29.4104C43.9071 29.6939 43.911 30.0458 44.1768 30.3061C44.4341 30.5582 44.8027 30.5441 45.0731 30.2684C46.9855 28.3197 47.9283 25.9702 47.9731 23.4777C47.9613 21.7849 47.6602 20.3838 47.0454 19.0534L47.0456 19.0534ZM30.8856 16.2355C28.2847 19.0128 27.4329 22.2534 28.3672 25.9392C28.7927 27.6179 29.6796 29.0511 30.9059 30.2731C31.2083 30.5746 31.6228 30.5537 31.8683 30.2286C32.0742 29.9559 32.0333 29.6561 31.7445 29.3627C30.4708 28.0696 29.6714 26.5304 29.379 24.7391C28.9927 22.3723 29.4674 20.1914 30.838 18.2142C31.1284 17.7952 31.4669 17.4164 31.8178 17.0475C31.9968 16.8592 32.0508 16.634 31.9415 16.3904C31.8322 16.1472 31.6387 16.0159 31.403 16.0019C31.1706 16.0032 31.0174 16.0952 30.8854 16.2359L30.8856 16.2355ZM45.1206 21.3983C44.7876 20.1127 44.1516 18.9987 43.2212 18.0523C43.012 17.8395 42.7452 17.7865 42.502 17.9046C42.2536 18.0251 42.1148 18.2798 42.1468 18.5535C42.1684 18.7361 42.284 18.8609 42.4025 18.9869C43.4062 20.0531 43.9824 21.3171 44.0832 22.7761C44.2102 24.6162 43.6269 26.2131 42.3534 27.554C42.0732 27.8492 42.0689 28.2103 42.3354 28.4657C42.6068 28.7259 42.9584 28.7063 43.2435 28.412C44.6354 26.9758 45.318 25.2487 45.3582 23.3569C45.3513 22.6282 45.2784 22.0078 45.1206 21.3983ZM30.7364 24.5514C31.0147 26.0592 31.69 27.3618 32.7697 28.4512C33.0286 28.7125 33.3809 28.7128 33.6359 28.4679C33.8889 28.225 33.9004 27.8731 33.6621 27.5998C33.61 27.5402 33.5517 27.4862 33.4984 27.4273C32.1644 25.9542 31.6662 24.2254 31.9497 22.271C32.1382 20.9721 32.7173 19.8584 33.6326 18.9189C33.7416 18.8072 33.8196 18.6815 33.8297 18.5211C33.8471 18.2524 33.7027 18.0104 33.4585 17.9008C33.2051 17.7872 32.9576 17.8392 32.7422 18.0618C31.3421 19.5088 30.6497 21.2457 30.6143 23.1395C30.6209 23.6889 30.6576 24.1226 30.7364 24.5515L30.7364 24.5514ZM41.3435 19.9241C41.0944 19.6649 40.7323 19.6501 40.4773 19.8796C40.2135 20.1173 40.1964 20.4846 40.4377 20.7628C40.4983 20.8326 40.5644 20.8977 40.6246 20.9678C41.153 21.5848 41.4473 22.2978 41.4761 23.1106C41.5114 24.1039 41.1621 24.9524 40.4868 25.6761C40.1918 25.9924 40.1948 26.3839 40.4776 26.6399C40.7526 26.889 41.1052 26.8507 41.4001 26.5381C42.2631 25.6238 42.6903 24.5346 42.7109 23.2609C42.6929 21.9826 42.2437 20.861 41.3435 19.9241ZM33.311 23.9232C33.4649 24.9596 33.9072 25.8553 34.6378 26.6056C34.8899 26.8645 35.2529 26.8685 35.5056 26.6301C35.7606 26.3895 35.7741 26.0409 35.5377 25.762C35.4781 25.6916 35.4123 25.6262 35.3518 25.5564C34.8267 24.9462 34.5321 24.2405 34.498 23.4352C34.4554 22.4191 34.8132 21.5548 35.5098 20.8199C35.7812 20.5335 35.7704 20.1717 35.5056 19.9233C35.2391 19.6732 34.8862 19.6909 34.6096 19.9737C33.7185 20.8847 33.2809 21.9824 33.2648 23.2519C33.2592 23.4771 33.2779 23.701 33.311 23.9233L33.311 23.9232Z" fill="#01DA63"/>
<defs>
<linearGradient id="paint0_linear_212_1090" x1="38" y1="0.399902" x2="38" y2="76.3999" gradientUnits="userSpaceOnUse">
<stop stop-color="#1A2C23"/>
<stop offset="1" stop-color="#1A2C23" stop-opacity="0"/>
</linearGradient>
</defs>
</svg>
