<svg width="76" height="77" viewBox="0 0 76 77" fill="none" xmlns="http://www.w3.org/2000/svg">
<rect y="0.399902" width="76" height="76" rx="38" fill="url(#paint0_linear_212_1060)"/>
<path d="M15 59.9931H22.1208V56.8456V56.8315L22.1211 41.4794V41.4722V40.0549H15.0003L15 59.9931Z" fill="#01DA63"/>
<path d="M57.6398 47.5026C56.5219 46.648 54.9625 46.7978 54.0153 47.8301C53.994 47.8514 53.9727 47.8728 53.9514 47.8941L48.9383 52.1453C48.7245 52.7505 48.3757 53.3061 47.92 53.7618C47.2434 54.4385 46.3465 54.8656 45.3994 54.9794C45.2571 55.0007 45.086 55.0151 44.908 55.0151H35.5799C35.1881 55.0151 34.8678 54.6948 34.8678 54.3031C34.8678 53.9113 35.1881 53.591 35.5799 53.591H44.9013C45.0081 53.591 45.1078 53.5838 45.2074 53.5697C45.8697 53.4914 46.468 53.2065 46.9164 52.758C47.2583 52.4161 47.5075 51.9962 47.6428 51.5405C47.7353 51.2271 47.771 50.9209 47.7569 50.6006C47.6858 49.1123 46.3541 47.8947 44.7947 47.8947H41.8324C41.3695 47.8947 40.9067 47.738 40.5366 47.4604L34.5694 42.9173C33.9643 42.4544 33.2093 42.1981 32.4402 42.1981L23.546 42.1978V56.3683L32.1263 59.9714C32.1689 59.9855 32.2545 60 32.3401 60H49.3304C49.5225 60 49.7077 59.9216 49.8359 59.7862L58.1388 51.3267C58.4948 50.8923 58.7086 50.2799 58.7086 49.6604C58.7083 48.8133 58.3096 48.0085 57.6402 47.503L57.6398 47.5026Z" fill="#01DA63"/>
<path d="M30.4166 37.2346H54.2434C57.697 37.2346 60.4885 34.4363 60.4885 30.9895C60.4885 27.5359 57.697 24.7444 54.2434 24.7444C54.2434 21.9244 51.9575 19.6388 49.1378 19.6388C47.977 19.6388 46.9089 20.0234 46.0546 20.6856C44.6876 17.809 41.8676 16 38.471 16C33.7713 16 29.8479 19.6316 29.8479 24.3314C29.8479 24.4881 29.8551 24.6303 29.862 24.7798C26.6791 25.0575 24.1794 27.728 24.1794 30.9964C24.1719 34.4359 26.9705 37.2346 30.4169 37.2346L30.4166 37.2346ZM45.4348 29.2452C45.7124 28.9675 46.1612 28.9675 46.4389 29.2452L47.2365 30.0428V24.6383C47.2365 24.2465 47.5568 23.9262 47.9485 23.9262C48.3403 23.9262 48.6606 24.2465 48.6606 24.6383V30.0428L49.4582 29.2452C49.7359 28.9675 50.1846 28.9675 50.4623 29.2452C50.74 29.5228 50.74 29.9716 50.4623 30.2493L48.4472 32.2645C48.3118 32.3999 48.1338 32.471 47.9417 32.471C47.7564 32.471 47.5712 32.3927 47.4361 32.2645L45.421 30.2493C45.1571 29.9713 45.1571 29.5229 45.4348 29.2452ZM39.7381 26.1475L41.7533 24.1324C42.0168 23.8688 42.4938 23.8619 42.7574 24.1324L44.7726 26.1475C45.0503 26.4252 45.0503 26.874 44.7726 27.1517C44.6303 27.294 44.4523 27.3582 44.2671 27.3582C44.0819 27.3582 43.9039 27.2871 43.7616 27.1517L42.964 26.3541V31.7586C42.964 32.1504 42.6437 32.4706 42.2519 32.4706C41.8602 32.4706 41.5399 32.1504 41.5399 31.7586V26.3541L40.7423 27.1517C40.4646 27.4294 40.0158 27.4294 39.7381 27.1517C39.4605 26.8809 39.4604 26.4324 39.7381 26.1475ZM38.7126 18.799C39.1044 18.799 39.4247 19.1193 39.4247 19.5111C39.4247 19.9028 39.1044 20.2231 38.7126 20.2231C36.2205 20.2231 34.1909 22.1245 34.1909 24.4671C34.1909 24.8589 33.8706 25.1792 33.4789 25.1792C33.0871 25.1792 32.7668 24.8589 32.7668 24.4671C32.7668 21.3482 35.4369 18.799 38.7126 18.799Z" fill="#01DA63"/>
<defs>
<linearGradient id="paint0_linear_212_1060" x1="38" y1="0.399902" x2="38" y2="76.3999" gradientUnits="userSpaceOnUse">
<stop stop-color="#1A2C23"/>
<stop offset="1" stop-color="#1A2C23" stop-opacity="0"/>
</linearGradient>
</defs>
</svg>
