<svg width="76" height="77" viewBox="0 0 76 77" fill="none" xmlns="http://www.w3.org/2000/svg">
<rect y="0.399902" width="76" height="76" rx="38" fill="url(#paint0_linear_212_1050)"/>
<path d="M31.5 25.4286V23.8572H29.9286V25.4286H31.5Z" fill="#01DA63"/>
<path d="M38.5714 41.143V39.5715H37V41.143H38.5714Z" fill="#01DA63"/>
<path d="M31.5 33.2858V31.7144H29.9286V33.2858H31.5Z" fill="#01DA63"/>
<path d="M38.5714 33.2858V31.7144H37V33.2858H38.5714Z" fill="#01DA63"/>
<path d="M31.5 41.143V39.5715H29.9286V41.143H31.5Z" fill="#01DA63"/>
<path d="M34.6922 17.5714H40.8797C41.469 17.5714 41.9895 17.1687 42.1271 16.5991C42.1762 16.3929 42.2548 16.1964 42.353 16H33.2189C33.3172 16.1866 33.3859 16.3929 33.4448 16.5991C33.5823 17.1688 34.1029 17.5714 34.6922 17.5714Z" fill="#01DA63"/>
<path d="M38.5714 25.4286V23.8572H37V25.4286H38.5714Z" fill="#01DA63"/>
<path d="M47.2143 16H44.9063C44.317 16 43.7965 16.4027 43.6589 16.9723C43.3446 18.2491 42.1955 19.1429 40.8795 19.1429H34.692C33.3759 19.1429 32.2366 18.2491 31.9125 16.9723C31.7652 16.4027 31.2545 16 30.6652 16H28.3571C27.0607 16 26 17.0607 26 18.3571V57.6429C26 58.9393 27.0607 60 28.3571 60H47.2143C48.5108 60 49.5714 58.9393 49.5714 57.6429V18.3571C49.5714 17.0607 48.5108 16 47.2143 16ZM35.4286 23.8571C35.4286 22.9929 36.1357 22.2857 37 22.2857H38.5714C39.4357 22.2857 40.1429 22.9929 40.1429 23.8571V25.4286C40.1429 26.2929 39.4357 27 38.5714 27H37C36.1357 27 35.4286 26.2929 35.4286 25.4286V23.8571ZM35.4286 31.7143C35.4286 30.85 36.1357 30.1429 37 30.1429H38.5714C39.4357 30.1429 40.1429 30.85 40.1429 31.7143V33.2857C40.1429 34.15 39.4357 34.8571 38.5714 34.8571H37C36.1357 34.8571 35.4286 34.15 35.4286 33.2857V31.7143ZM35.4286 39.5714C35.4286 38.7071 36.1357 38 37 38H38.5714C39.4357 38 40.1429 38.7071 40.1429 39.5714V41.1429C40.1429 42.0071 39.4357 42.7143 38.5714 42.7143H37C36.1357 42.7143 35.4286 42.0071 35.4286 41.1429V39.5714ZM28.3571 23.8571C28.3571 22.9929 29.0643 22.2857 29.9286 22.2857H31.5C32.3643 22.2857 33.0714 22.9929 33.0714 23.8571V25.4286C33.0714 26.2929 32.3643 27 31.5 27H29.9286C29.0643 27 28.3571 26.2929 28.3571 25.4286V23.8571ZM28.3571 31.7143C28.3571 30.85 29.0643 30.1429 29.9286 30.1429H31.5C32.3643 30.1429 33.0714 30.85 33.0714 31.7143V33.2857C33.0714 34.15 32.3643 34.8571 31.5 34.8571H29.9286C29.0643 34.8571 28.3571 34.15 28.3571 33.2857V31.7143ZM28.3571 41.1429V39.5714C28.3571 38.7071 29.0643 38 29.9286 38H31.5C32.3643 38 33.0714 38.7071 33.0714 39.5714V41.1429C33.0714 42.0071 32.3643 42.7143 31.5 42.7143H29.9286C29.0643 42.7143 28.3571 42.0071 28.3571 41.1429ZM38.9549 57.3286C38.3066 56.7 37.2754 56.7 36.6174 57.3286L35.5272 56.1991C36.7941 54.9911 38.7878 54.9911 40.0549 56.1991L38.9549 57.3286ZM41.2334 55.0991C39.3084 53.2527 36.254 53.2527 34.3289 55.0991L33.2289 53.9697C35.7334 51.534 39.8191 51.534 42.3235 53.9697L41.2334 55.0991ZM43.5218 52.8795C40.3593 49.8054 35.2129 49.8054 32.0504 52.8795L30.9504 51.75C34.7218 48.0866 40.8504 48.0866 44.6218 51.75L43.5218 52.8795ZM47.2146 41.1431C47.2146 42.0074 46.5075 42.7146 45.6432 42.7146H44.0718C43.2075 42.7146 42.5004 42.0074 42.5004 41.1431V39.5717C42.5004 38.7074 43.2075 38.0003 44.0718 38.0003H45.6432C46.5075 38.0003 47.2146 38.7074 47.2146 39.5717V41.1431ZM47.2146 33.286C47.2146 34.1503 46.5075 34.8574 45.6432 34.8574H44.0718C43.2075 34.8574 42.5004 34.1503 42.5004 33.286V31.7146C42.5004 30.8503 43.2075 30.1431 44.0718 30.1431H45.6432C46.5075 30.1431 47.2146 30.8503 47.2146 31.7146V33.286ZM47.2146 25.4288C47.2146 26.2931 46.5075 27.0003 45.6432 27.0003H44.0718C43.2075 27.0003 42.5004 26.2931 42.5004 25.4288V23.8574C42.5004 22.9931 43.2075 22.286 44.0718 22.286H45.6432C46.5075 22.286 47.2146 22.9931 47.2146 23.8574V25.4288Z" fill="#01DA63"/>
<path d="M44.0714 39.5715V41.143H45.6428V39.5715H44.0714Z" fill="#01DA63"/>
<path d="M44.0714 23.8572V25.4286H45.6428V23.8572H44.0714Z" fill="#01DA63"/>
<path d="M44.0714 31.7144V33.2858H45.6428V31.7144H44.0714Z" fill="#01DA63"/>
<defs>
<linearGradient id="paint0_linear_212_1050" x1="38" y1="0.399902" x2="38" y2="76.3999" gradientUnits="userSpaceOnUse">
<stop stop-color="#1A2C23"/>
<stop offset="1" stop-color="#1A2C23" stop-opacity="0"/>
</linearGradient>
</defs>
</svg>
