<svg width="181" height="64" viewBox="0 0 181 64" fill="none" xmlns="http://www.w3.org/2000/svg">
<path fill-rule="evenodd" clip-rule="evenodd" d="M37.141 17.0107C39.1418 17.1548 40.7461 18.7768 40.8903 20.7771C41.0525 23.174 39.1779 25.1563 36.8346 25.1383C35.699 25.1383 34.6715 24.6877 33.9325 23.9309C33.3016 23.2821 32.4544 22.9036 31.5531 22.9036H31.2647C30.3635 22.9036 29.5163 23.2821 28.8854 23.9309C28.1464 24.6697 27.1189 25.1383 25.9833 25.1383C24.8477 25.1383 23.8203 24.6877 23.0812 23.9309C22.4503 23.2821 21.6032 22.9036 20.7019 22.9036H20.3774C19.4761 22.9036 18.629 23.2821 17.9981 23.9128L17.962 23.9489L17.926 23.9849C17.2951 24.6156 16.9166 25.4627 16.9166 26.3637V26.6881C16.9166 27.5892 17.2951 28.4362 17.944 29.0669C18.683 29.8058 19.1517 30.833 19.1517 31.9684C19.1517 33.1037 18.7011 34.1309 17.944 34.8698C17.2951 35.5005 16.9166 36.3475 16.9166 37.2486V37.609C16.9166 38.5101 17.2951 39.3571 17.944 39.9878L17.9801 40.0239C18.6109 40.6726 19.4761 41.015 20.3594 41.015H20.7379C21.6212 41.015 22.4684 40.6366 23.0992 40.0058C23.8383 39.267 24.8657 38.8164 25.9833 38.8164C28.3446 38.8164 30.2193 40.7988 30.0571 43.1956C29.9128 45.214 28.2905 46.8359 26.2898 46.9801C25.01 47.0702 23.8383 46.5836 23.0272 45.7366C22.4143 45.0879 21.5851 44.7094 20.7019 44.7094H20.3594C19.4761 44.7094 18.647 45.1059 18.0341 45.7366C17.259 46.5476 16.1595 47.0342 14.9338 46.9981C12.8248 46.926 11.0944 45.214 11.0042 43.0875C10.9502 41.8801 11.4369 40.7808 12.23 40.0058C12.8609 39.3931 13.2394 38.5642 13.2394 37.6811V37.2666C13.2394 36.3656 12.8609 35.5186 12.2119 34.8878C11.4729 34.1489 11.0042 33.1217 11.0042 31.9864C11.0042 30.851 11.4549 29.8238 12.2119 29.0849C12.8609 28.4542 13.2394 27.6072 13.2394 26.7061V26.3998C13.2394 25.5167 12.8969 24.6517 12.248 24.039L12.1939 23.9849C10.5356 22.327 10.6077 19.5877 12.3922 18.0199C13.8703 16.7043 16.1235 16.6683 17.6556 17.9117C17.7818 18.0199 17.908 18.146 18.0341 18.2722C18.647 18.9029 19.4942 19.2453 20.3774 19.2453H20.6839C21.5851 19.2453 22.4323 18.8669 23.0632 18.2181C23.8022 17.4792 24.8297 17.0107 25.9653 17.0107C27.1009 17.0107 28.1283 17.4612 28.8674 18.2181C29.4983 18.8669 30.3455 19.2453 31.2467 19.2453H31.5712C32.4544 19.2453 33.2836 18.8669 33.8964 18.2361C34.7076 17.4071 35.8612 16.9206 37.141 17.0107ZM87.3561 22.3011C88.3204 23.2652 88.3204 24.8284 87.3561 25.7926C86.3914 26.7567 84.828 26.7567 83.8637 25.7926C82.8994 24.8284 82.8994 23.2652 83.8637 22.3011C84.828 21.3369 86.3914 21.3369 87.3561 22.3011ZM55.5628 38.2938C52.6248 38.2938 50.8041 35.6627 50.8041 32.0224C50.8041 28.4181 52.3363 25.7329 55.5447 25.7329C57.6536 25.7329 59.0415 27.0845 59.2942 28.8686H64.197C63.9444 26.652 62.9531 24.7057 61.2228 23.4082C59.8168 22.3269 57.87 21.6602 55.5628 21.6602C49.6505 21.6602 45.8111 26.1294 45.8111 32.0224C45.8111 37.9514 49.7767 42.2945 55.599 42.2945C58.3926 42.2945 60.4295 41.5196 61.9437 40.0418C63.2955 38.7443 64.197 36.9422 64.323 34.9779H59.4201C59.204 36.9062 57.7618 38.2938 55.5628 38.2938ZM73.372 27.3008C68.8296 27.3008 65.7833 30.5446 65.7833 34.8157C65.7833 39.0867 68.8296 42.3306 73.372 42.3306C77.9502 42.3306 80.9426 39.0867 80.9426 34.8157C80.9426 30.5446 77.9502 27.3008 73.372 27.3008ZM73.3539 39.1047C71.389 39.1047 70.3616 37.3927 70.3616 34.8157C70.3616 32.2386 71.389 30.4906 73.3539 30.4906C75.3187 30.4906 76.382 32.2386 76.382 34.8157C76.3643 37.3927 75.3187 39.1047 73.3539 39.1047ZM81.6816 30.8691H83.574V41.8801H88.0806V27.6793H81.6816V30.8691ZM94.7862 29.6256C95.8314 28.0938 97.2017 27.2648 99.1661 27.2648C102.267 27.2648 104.105 29.4814 104.105 32.6352V41.8621H99.5809V33.5543C99.5809 32.0585 98.8419 31.0313 97.3638 31.0313C95.8676 31.0313 94.8763 32.2747 94.8763 34.0228V41.8621H90.352V27.6793H94.6961V29.6256H94.7862ZM114.704 22.0566H106.25V41.862H114.398C116.885 41.862 118.886 41.2313 120.436 40.0599C122.653 38.3659 123.879 35.5726 123.879 32.0765C123.879 26.0213 120.184 22.0566 114.704 22.0566ZM114.037 37.7532H111.153V26.1655H114.091C117.174 26.1655 118.922 28.4902 118.922 32.0945C118.904 35.7167 117.246 37.7532 114.037 37.7532ZM132.423 27.3729C134.442 27.3729 136.046 28.0397 137.272 29.139C138.966 30.6888 139.795 33.1397 139.777 36.0412H129.575C129.863 37.9514 130.909 39.1408 132.765 39.1408C133.955 39.1408 134.73 38.6182 135.126 37.7352H139.525C139.218 39.0147 138.389 40.2221 137.146 41.0871C135.956 41.9161 134.514 42.3847 132.711 42.3847C128.025 42.3847 125.14 39.1408 125.14 34.8518C125.14 30.6167 128.097 27.3729 132.423 27.3729ZM132.495 30.5627C130.782 30.5627 129.899 31.644 129.593 33.338H135.181C135.019 31.644 133.955 30.5627 132.495 30.5627ZM148.682 32.9955C148.474 32.9581 148.268 32.923 148.067 32.8888C146.53 32.6265 145.275 32.4125 145.275 31.5358C145.275 30.6527 146.14 30.2382 147.239 30.2382C148.483 30.2382 149.349 30.6347 149.511 31.8962H153.675C153.458 29.1029 151.295 27.3549 147.276 27.3549C143.923 27.3549 141.147 28.9047 141.147 31.8962C141.147 35.2301 143.779 35.8789 146.248 36.2934C146.43 36.3246 146.611 36.3541 146.788 36.3832C148.454 36.656 149.853 36.885 149.853 38.0415C149.853 38.9605 148.988 39.4471 147.636 39.4471C146.14 39.4471 145.203 38.7623 145.022 37.3387H140.751C140.895 40.4744 143.49 42.3846 147.654 42.3846C151.367 42.3846 154.107 40.7807 154.107 37.6811C154.125 34.0588 151.187 33.41 148.682 32.9955ZM169.735 27.6793L164.742 33.0136L170.312 41.88H165.085L161.678 36.0772L160.308 37.5189V41.88H155.856V22.0566H160.308V32.4729L164.526 27.6793H169.735ZM25.9473 33.3381C26.7039 33.3381 27.3172 32.7249 27.3172 31.9685C27.3172 31.212 26.7039 30.5989 25.9473 30.5989C25.1907 30.5989 24.5774 31.212 24.5774 31.9685C24.5774 32.7249 25.1907 33.3381 25.9473 33.3381ZM38.2407 31.9685C38.2407 32.7249 37.6274 33.3381 36.8708 33.3381C36.1142 33.3381 35.5009 32.7249 35.5009 31.9685C35.5009 31.212 36.1142 30.5989 36.8708 30.5989C37.6274 30.5989 38.2407 31.212 38.2407 31.9685ZM36.8708 44.2768C37.6274 44.2768 38.2407 43.6636 38.2407 42.9072C38.2407 42.1508 37.6274 41.5376 36.8708 41.5376C36.1142 41.5376 35.5009 42.1508 35.5009 42.9072C35.5009 43.6636 36.1142 44.2768 36.8708 44.2768Z" fill="white"/>
</svg>
