<svg width="181" height="64" viewBox="0 0 181 64" fill="none" xmlns="http://www.w3.org/2000/svg">
<path d="M90.6172 14.1687C91.3963 14.2051 92.1404 14.5027 92.7298 15.0135C93.533 15.7738 93.7436 17.0416 93.3634 18.056C91.8856 21.0979 88.3711 23.1297 85.9696 23.8018C84.5328 24.1398 82.7165 24.1398 81.4064 23.6329C80.7722 24.013 80.2372 25.2417 79.4628 24.7311C78.3419 23.8557 79.3122 22.4857 78.6651 21.5135C78.5317 21.3134 78.1956 21.2987 78.0266 20.9711C77.139 19.0275 78.2378 17.1683 79.4628 15.6899C81.505 13.4114 87.3641 10.8727 90.6172 14.1687ZM83.8147 15.6893C82.6736 15.9005 81.385 16.397 80.6884 17.2106C79.9911 18.0235 79.5479 18.8163 79.9703 19.6611C81.4493 18.5629 82.1674 17.0416 83.8153 16.1123C83.8147 15.9428 84.0682 15.816 83.8147 15.6893ZM90.7023 16.1123C87.7865 15.8583 85.5894 18.056 83.519 20.168C83.3923 20.5059 82.632 20.8861 83.2234 21.2662C86.0124 21.5197 88.6742 20.7177 90.7023 18.8579C91.2943 18.3088 91.7154 17.5907 91.421 16.8298C91.2943 16.5347 90.9961 16.2391 90.7023 16.1123ZM115.967 28.7029C117.32 31.9988 118.46 37.195 115.967 40.3642C115.291 41.1245 114.109 41.8254 113.348 41.2512C110.559 39.0125 109.377 35.801 107.645 32.9275C107.391 32.8008 107.391 33.1393 107.265 33.266C106.631 36.1812 107.814 39.984 105.828 42.265C105.068 42.3917 104.357 42.0005 104.096 41.2512C103.124 38.2516 104.137 35.1246 104.39 32.1249C104.982 30.6037 105.236 28.8296 106.546 27.6885C108.659 28.5333 109.672 30.9 110.897 32.6324C111.785 33.9419 112.502 35.4209 113.516 36.6036C114.403 36.2234 113.967 35.064 113.939 34.3643C113.6 31.6181 112.84 29.0831 112.121 26.4636C112.08 25.7877 111.7 24.6466 112.417 24.2242C114.321 25.0696 115.122 27.0549 115.967 28.7029ZM103.208 27.6885C103.208 28.3227 102.701 29.1149 102.277 29.2098C98.2216 29.8434 93.7007 29.4632 89.8985 30.7304C89.7718 31.195 90.3209 31.2795 90.6166 31.4062C93.8691 31.9131 97.2923 32.0398 100.462 32.843C102.137 33.2685 102.744 35.2519 102.87 36.8993C102.948 38.1983 102.449 39.7722 101.18 40.6599C98.0545 42.6457 93.2801 42.5607 90.1103 40.7449C88.8988 40.0654 87.7443 38.9709 87.6598 37.6186C87.6671 36.5448 88.125 35.6994 88.8854 35.2948C91.9279 34.0692 95.6878 34.7463 98.3079 36.3085C98.4757 37.1539 97.5611 37.108 97.1234 37.4074C94.2076 39.0976 92.0111 35.5072 89.3071 36.8154C88.927 37.0689 88.6521 37.7759 89.0959 37.9987C92.4335 39.4777 96.1518 38.4211 99.4472 37.4919C99.8273 37.3651 100.293 36.985 100.334 36.6048C100.207 35.2525 98.6869 34.9575 97.7147 34.5773C94.8418 33.8592 91.6732 33.8592 88.5884 33.5635C87.9971 33.4368 87.2435 33.0248 87.0678 32.5498C86.7299 31.536 86.7299 30.1415 87.4902 29.2967C91.4191 25.8318 97.3762 26.1281 102.362 27.0574C102.7 27.1816 103.08 27.3084 103.208 27.6885ZM84.7446 29.2943C85.1248 33.3499 85.336 37.1111 85.2515 41.3779C85.167 41.9264 84.5334 42.0538 84.111 42.265C83.4352 42.3917 82.5616 42.2478 82.2941 41.8848C81.3226 40.3207 81.6605 38.2093 81.576 36.3079C81.7027 33.3089 81.6605 30.0552 82.5059 27.2661C82.6675 26.8609 83.1395 26.5058 83.5197 26.7586C84.5334 27.2661 84.7024 28.2805 84.7446 29.2943ZM131.686 28.7029C131.889 29.0445 132.102 29.5722 131.686 29.8011C129.785 30.6459 127.208 30.2658 125.01 30.5192C124.419 31.0261 123.954 31.8709 124.164 32.6318C124.377 32.7585 124.566 32.9514 124.799 32.9269C126.15 33.012 128.179 32.2933 129.067 33.5605C129.284 33.9376 129.038 35.3456 128.434 35.3774C126.785 35.5898 124.074 35.1705 123.278 35.5898C122.264 36.2657 122.348 37.5751 121.968 38.6323C122.686 39.097 123.439 38.6213 124.291 38.505C125.856 38.2516 127.588 37.7869 129.15 38.1248C129.446 38.674 129.869 39.2659 129.573 39.9418C126.909 42.0544 123.474 44.2196 119.814 42.688C118.44 42.0721 117.828 39.984 118.293 38.2106C118.588 36.9427 119.897 35.7178 119.095 34.3655C118.969 33.7735 119.307 33.2673 119.814 33.1405C121.208 33.1405 120.912 31.4081 121.63 30.6049C120.828 29.7179 118.8 29.7601 119.012 27.9854C119.984 27.4785 121.167 27.6475 122.264 27.4785C124.757 26.9711 127.545 26.6754 130.082 26.9711C130.587 27.0727 131.264 28.0693 131.686 28.7029ZM71.3509 19.0697C75.2498 22.2567 80.3082 27.6891 79.6746 33.9419C78.9137 38.8858 73.6747 42.6035 69.2383 43.7868C64.9286 45.054 59.5206 44.9273 55.1259 43.9136C54.8302 44.7167 54.5345 45.6876 53.6052 46.0262C53.0139 46.2374 52.2529 46.1106 51.7883 45.7305C50.4789 44.5049 51.5348 42.1389 49.6334 41.3792C45.9151 39.8157 41.9011 36.7309 40.0003 32.9287C39.7468 32.1684 40.0425 31.4081 40.5072 30.8167C43.4229 28.4929 47.0984 27.5636 50.7745 26.8449C50.9857 26.9294 50.9013 26.6337 51.0702 26.5493C51.2814 24.0143 51.3659 21.4364 52.1684 19.1548C52.3515 18.8347 52.802 18.7324 53.0983 18.9436C55.4221 20.7177 54.3233 24.0565 55.3377 26.4642C59.7741 26.6754 64.2105 26.8866 67.717 29.38C68.9004 30.3515 69.1887 32.207 68.8153 33.2673C68.4425 34.3257 67.2102 35.0842 66.0691 35.1674C65.3081 35.1674 63.872 35.2415 63.9565 34.6612C64.0409 34.0802 66.541 33.1295 65.7734 32.3368C64.6696 31.1975 59.1472 30.5198 55.7246 30.0974C55.3022 30.0129 54.9147 30.1397 54.9147 30.6043C54.8302 33.8151 54.5767 37.3639 55.1259 40.4493C55.1681 40.6611 55.4215 40.9145 55.6333 40.9555C61.6749 41.9277 68.0549 41.3779 72.787 37.9136C74.9841 36.1402 75.7028 33.6456 75.3221 30.9C73.4206 23.2527 65.4355 18.6467 58.8864 15.6893C52.507 12.9009 45.4505 11.4641 37.8877 11.8449C36.6835 11.933 34.7754 12.3487 34.7613 12.7748C34.7472 13.2008 36.9229 13.0668 36.6621 13.873C36.4019 14.6786 34.1908 14.2005 33.5357 13.9997C32.8807 13.7989 32.9444 12.8586 33.1133 12.2673C34.7613 9.35211 39.36 9.11642 41.4371 9.01419C52.9288 8.7179 64.0415 13.0943 71.3509 19.0697ZM50.6478 30.3931C47.732 30.4353 44.6479 30.731 41.9439 31.7448C41.3948 31.956 40.7184 32.5473 41.1408 33.266C42.239 34.7444 43.8098 35.9584 45.2815 36.8148C46.7532 37.67 48.7042 38.7584 50.4789 39.0125C50.9013 36.2657 50.9013 33.5617 50.859 30.731C50.6894 30.6465 50.8584 30.4776 50.6478 30.3931ZM137.98 26.548C137.854 30.2235 134.43 32.5057 134.43 36.1812C134.557 36.3079 134.643 36.4769 134.811 36.3936C137.558 33.3934 140.261 29.1259 144.275 27.8587C145.333 27.7742 146.289 28.6931 146.684 29.38C148.079 32.1684 147.742 36.0979 145.798 38.6329C143.792 41.1214 140.304 43.6185 136.334 43.1955C134.687 47.2517 133.544 51.5192 132.91 55.9556C132.572 56.8426 131.771 56.0401 131.264 55.8711C127.842 53.1672 130.651 46.009 130.883 45.0957C131.115 44.1847 132.031 42.036 132.701 40.2368C131.095 37.3645 132.109 33.899 133.418 31.2373C134.432 29.4626 135.828 27.6879 137.475 26.3362C137.685 26.3368 137.854 26.3791 137.98 26.548ZM144.784 31.1112C144.277 31.0267 144.065 31.7032 143.644 31.8299C141.701 34.027 139.756 36.224 138.784 38.8435C140.095 39.0125 141.192 38.1677 142.334 37.7031C144.277 36.4775 145.503 34.4506 145.376 32.1262C145.291 31.7448 144.953 31.4491 144.784 31.1112Z" fill="white"/>
</svg>
