<svg width="181" height="64" viewBox="0 0 181 64" fill="none" xmlns="http://www.w3.org/2000/svg">
<path d="M47.4134 20.639H49.7744C51.2127 20.4272 52.6816 20.6136 54.0214 21.178C55.7033 22.1887 56.9235 23.8169 57.4214 25.715C57.7734 26.709 57.7734 26.709 58.6214 26.357H59.2844V18.485H37.0564V19.873H37.9684C38.3644 19.8703 38.756 19.9565 39.1144 20.125C39.4728 20.2936 39.7889 20.5403 40.0394 20.847C40.8884 22.214 41.0294 23.747 41.0294 31.722C41.0294 40.194 40.8434 42.266 40.0354 43.322C39.8359 43.5935 39.5778 43.8164 39.2801 43.9742C38.9824 44.1319 38.653 44.2204 38.3164 44.233C37.0524 44.461 37.0524 44.44 37.0524 44.999C36.9825 45.186 36.9825 45.392 37.0524 45.579H51.0804C51.1732 45.396 51.2216 45.1937 51.2216 44.9885C51.2216 44.7833 51.1732 44.581 51.0804 44.398C50.7406 44.3035 50.3943 44.2343 50.0444 44.191C49.6657 44.146 49.2915 44.0697 48.9254 43.963C48.4013 43.5803 47.9862 43.0675 47.721 42.4753C47.4558 41.883 47.3498 41.2318 47.4134 40.586C47.1872 38.6126 47.0834 36.6272 47.1024 34.641V33.006H47.9294C48.9618 32.9743 49.9936 33.0856 50.9954 33.337C51.4752 33.6336 51.8836 34.0324 52.1914 34.505C52.4993 34.9776 52.699 35.5123 52.7764 36.071L52.9624 36.713H54.2294V27.539H53.0694L52.8834 28.43C52.8049 29.0014 52.5935 29.5464 52.2661 30.0212C51.9387 30.4961 51.5045 30.8875 50.9984 31.164C50.508 31.3087 49.9916 31.3428 49.4864 31.264H47.1034V29.029C47.1034 26.709 47.2274 21.82 47.3104 21.054L47.4134 20.639ZM144.358 37.066C143.379 35.4901 141.852 34.3318 140.07 33.814C138.705 33.3859 137.442 32.6794 136.363 31.739C136.12 31.5039 135.939 31.213 135.834 30.8916C135.73 30.5701 135.705 30.228 135.763 29.895C135.765 29.2419 136.026 28.616 136.488 28.155C136.802 27.8264 137.199 27.5892 137.637 27.4688C138.075 27.3483 138.537 27.3491 138.974 27.471C139.88 27.729 140.699 28.2271 141.345 28.9126C141.99 29.5982 142.438 30.4455 142.641 31.365C142.972 32.297 143.014 32.297 143.615 32.049L143.988 31.904V26.751L143.719 26.627C141.68 25.9108 139.517 25.6149 137.36 25.757C135.503 25.8038 133.73 26.5423 132.388 27.828C131.781 28.3976 131.304 29.0931 130.994 29.8659C130.683 30.6387 130.544 31.4702 130.588 32.302C130.599 33.5752 131.105 34.7943 131.997 35.702C132.983 36.6712 134.192 37.3825 135.518 37.773C138.729 39.037 139.661 39.844 139.661 41.315C139.675 41.9352 139.478 42.5418 139.102 43.035C138.725 43.5282 138.192 43.8787 137.59 44.029C136.866 44.1885 136.115 44.1885 135.39 44.029C134.443 43.6615 133.598 43.0731 132.924 42.3128C132.25 41.5526 131.767 40.6424 131.516 39.658L131.247 38.995H130.874C130.696 39.0081 130.521 39.05 130.356 39.119H130.149V45.002H130.501C131.901 45.4676 133.345 45.787 134.81 45.955H136.881C137.78 46.0208 138.683 45.9366 139.553 45.706C140.659 45.5021 141.692 45.0124 142.55 44.2856C143.407 43.5587 144.06 42.6201 144.442 41.563C144.69 40.9727 144.816 40.339 144.815 39.699C144.897 38.7972 144.74 37.8898 144.359 37.068L144.358 37.066ZM124.845 26.357C123.604 25.8358 122.267 25.5829 120.921 25.615C119.575 25.6471 118.251 25.9633 117.036 26.543C115.894 27.1016 114.882 27.8935 114.065 28.8675C113.248 29.8416 112.644 30.9762 112.292 32.198C111.843 33.53 111.652 34.9354 111.729 36.339C111.714 37.103 111.777 37.8665 111.915 38.618C112.25 40.4667 113.142 42.1688 114.472 43.4955C115.802 44.8222 117.507 45.7098 119.356 46.039C120.56 46.1906 121.778 46.1906 122.981 46.039C124.23 45.8189 125.425 45.3621 126.502 44.693C127.395 44.1942 128.151 43.4828 128.702 42.622C128.667 42.4868 128.604 42.3602 128.518 42.2499C128.432 42.1395 128.325 42.0477 128.202 41.98C127.966 42.0656 127.743 42.1841 127.539 42.332C126.509 43.0112 125.293 43.3517 124.059 43.306C123.241 43.3613 122.42 43.2338 121.657 42.9329C120.894 42.6319 120.208 42.165 119.647 41.566C119.214 41.1632 118.856 40.686 118.591 40.157C117.948 38.8692 117.601 37.4535 117.576 36.014V35.206H129.05V34.792C129.076 34.3781 129.076 33.9629 129.05 33.549C129.046 32.0864 128.655 30.6509 127.916 29.3884C127.178 28.1259 126.118 27.0814 124.845 26.361V26.357ZM119.066 33.524H117.616V32.302C118.092 29.174 119.273 27.31 120.723 27.31C122.173 27.31 122.794 29.154 123.064 32.53V33.483H121.821L119.066 33.524ZM89.2784 25.673C88.5628 25.6453 87.8514 25.7947 87.2074 26.108C85.8072 26.7879 84.6763 27.9188 83.9964 29.319L83.7274 29.819V25.673H83.6274C83.3784 25.673 75.7144 27.206 75.4654 27.309C75.2164 27.412 75.2994 27.433 75.2994 27.809C75.2994 28.185 75.2994 28.244 75.4654 28.265L76.2734 28.431C76.4996 28.4364 76.7216 28.4933 76.9226 28.5972C77.1235 28.7012 77.2982 28.8495 77.4334 29.031C77.9514 29.715 78.0544 30.916 78.0544 36.031C78.1568 38.3351 78.0598 40.6437 77.7644 42.931C77.6939 43.2761 77.5179 43.5907 77.2609 43.8315C77.0038 44.0723 76.6783 44.2272 76.3294 44.275L75.6294 44.42H75.3604V45C75.2855 45.193 75.2855 45.407 75.3604 45.6H86.9404V45C86.9805 44.802 86.9805 44.598 86.9404 44.4C86.2433 44.3729 85.5502 44.2829 84.8694 44.131C84.4982 43.9374 84.1944 43.6359 83.998 43.2662C83.8016 42.8965 83.7219 42.4759 83.7694 42.06C83.5732 39.5932 83.5042 37.1179 83.5624 34.644C83.6034 31.951 83.5624 31.785 83.7904 31.599C84.4837 31.0676 85.3416 30.7965 86.2144 30.833C87.0368 30.8508 87.8443 31.056 88.5754 31.433C88.8289 31.5739 89.1008 31.6786 89.3834 31.744C89.3834 31.744 91.4544 26.731 91.4544 26.503C91.1894 26.1949 90.8517 25.9577 90.4719 25.8129C90.0921 25.6682 89.6823 25.6204 89.2794 25.674L89.2784 25.673ZM75.3164 34.373C75.2441 32.8928 74.8192 31.4513 74.0769 30.1687C73.3347 28.886 72.2967 27.7992 71.0494 26.999C69.5671 26.1995 67.9179 25.7586 66.2344 25.7119C64.5508 25.6652 62.8798 26.0139 61.3554 26.73C59.1998 27.8665 57.5722 29.7987 56.8184 32.116C56.0399 34.7102 56.0399 37.4758 56.8184 40.07C57.2264 41.4877 57.9891 42.778 59.0344 43.819C60.3365 45.0895 62.0154 45.9036 63.8194 46.139C64.9774 46.2358 66.1414 46.2358 67.2994 46.139C67.7256 46.0743 68.1477 45.9845 68.5634 45.87C70.2495 45.3983 71.7665 44.4562 72.9367 43.1538C74.1069 41.8515 74.8821 40.2428 75.1714 38.516C75.3781 37.1454 75.4268 35.7547 75.3164 34.373ZM66.6994 44.731C64.6284 45.352 63.0744 43.343 62.5564 39.117C62.3662 36.9047 62.3662 34.6803 62.5564 32.468C62.9704 29.068 64.0274 27.351 65.6634 27.351C65.9935 27.3305 66.3237 27.3893 66.6265 27.5225C66.9292 27.6558 67.1956 27.8596 67.4034 28.117C68.7914 29.505 69.4744 32.26 69.4744 36.403C69.6467 38.7476 69.2783 41.1004 68.3974 43.28C68.0079 43.9158 67.4055 44.3927 66.6974 44.626V44.726L66.6994 44.731ZM103.985 26.088C103.401 26.0128 102.809 26.0128 102.224 26.088C101.103 26.0857 99.9937 26.3244 98.9724 26.788L98.3304 27.057V22.557C98.4426 21.0401 98.4426 19.5169 98.3304 18C98.0814 18 90.1684 19.512 90.0444 19.574C89.9834 19.7268 89.9834 19.8972 90.0444 20.05C90.0444 20.485 90.0444 20.464 90.9764 20.671C91.2382 20.7297 91.4897 20.8274 91.7224 20.961C92.1265 21.3412 92.3954 21.843 92.4884 22.39C92.7243 23.9663 92.8006 25.5624 92.7164 27.154V45.352L93.2754 45.476C94.1044 45.662 96.4444 46.056 97.2114 46.139C98.7423 46.2608 100.28 46.2608 101.811 46.139C103.51 45.9654 105.129 45.3316 106.494 44.3058C107.86 43.2801 108.919 41.9013 109.558 40.318C109.94 39.3017 110.204 38.2452 110.345 37.169C110.469 35.7114 110.42 34.2443 110.2 32.798C109.978 31.1769 109.263 29.6633 108.151 28.4626C107.04 27.2619 105.586 26.4322 103.986 26.086L103.985 26.088ZM98.5584 44.379C98.5584 44.11 98.3514 35.037 98.3924 31.412V28.574L98.9924 28.429C99.3976 28.3709 99.8091 28.3709 100.214 28.429C100.663 28.3835 101.113 28.4853 101.498 28.719C102.272 29.2524 102.914 29.9542 103.378 30.7718C103.841 31.5893 104.113 32.5013 104.172 33.439C104.323 34.9476 104.323 36.4674 104.172 37.976C104.049 40.168 103.205 42.2578 101.772 43.921C101.365 44.3078 100.854 44.5671 100.301 44.667C99.8832 44.7398 99.4556 44.7398 99.0374 44.667C98.6434 44.667 98.6434 44.543 98.6434 44.377L98.5584 44.379Z" fill="white"/>
</svg>
