<svg width="181" height="64" viewBox="0 0 181 64" fill="none" xmlns="http://www.w3.org/2000/svg">
<path fill-rule="evenodd" clip-rule="evenodd" d="M149.395 40.9104C150.669 40.0347 151.665 38.8114 152.264 37.386L152.268 37.336H148.614C148.31 37.8293 147.885 38.2361 147.378 38.5174C146.872 38.7986 146.301 38.9448 145.722 38.942C143.994 38.942 143.111 37.617 143.433 35.89C143.552 35.0644 143.96 34.308 144.586 33.7559C145.211 33.2038 146.012 32.8919 146.846 32.876C147.369 32.8217 147.893 32.9644 148.317 33.2762C148.74 33.588 149.032 34.0465 149.135 34.562H152.748C152.748 33.8704 152.606 33.1862 152.331 32.5517C152.056 31.9171 151.654 31.3456 151.15 30.8727C150.645 30.3997 150.049 30.0353 149.398 29.8019C148.747 29.5686 148.055 29.4713 147.365 29.516C145.574 29.5681 143.854 30.229 142.489 31.3897C141.124 32.5503 140.195 34.1416 139.855 35.901C139.652 36.681 139.635 37.4979 139.805 38.2857C139.976 39.0735 140.33 39.81 140.839 40.4356C141.347 41.0611 141.995 41.5583 142.732 41.8867C143.468 42.2151 144.271 42.3656 145.076 42.326C146.621 42.2775 148.12 41.7861 149.395 40.9104ZM115.601 25.257L122.548 21L123.623 25.258H121.857L110.692 41.938H107.6V32.462H107.558L101.258 41.938H98.125V25.258H101.741V34.734H101.783L108.091 25.257H111.189V34.733H111.269L117.569 25.257H115.601ZM125.842 41.92H129.375L131.623 29.993H128.091L127.85 31.238H127.808C127.501 30.6691 127.031 30.2047 126.459 29.9043C125.887 29.604 125.238 29.4813 124.595 29.552C122.846 29.6284 121.176 30.3049 119.867 31.4678C118.558 32.6306 117.689 34.2089 117.407 35.937C116.765 39.348 118.411 42.362 122.226 42.362C122.951 42.3833 123.672 42.2388 124.333 41.9395C124.994 41.6403 125.578 41.1941 126.041 40.635H126.083L125.842 41.92ZM125.676 38.0672C125.027 38.6286 124.207 38.9538 123.35 38.99H123.353C122.977 39.0069 122.603 38.9347 122.26 38.7794C121.917 38.624 121.616 38.3899 121.381 38.0961C121.146 37.8023 120.984 37.4571 120.907 37.0887C120.831 36.7202 120.843 36.339 120.942 35.976C121.085 35.1327 121.514 34.3646 122.158 33.8012C122.801 33.2379 123.619 32.9139 124.474 32.884C124.853 32.8604 125.232 32.9277 125.58 33.0802C125.928 33.2327 126.235 33.466 126.474 33.7608C126.714 34.0555 126.88 34.4032 126.958 34.7749C127.036 35.1467 127.025 35.5317 126.924 35.898C126.765 36.7412 126.325 37.5057 125.676 38.0672ZM138.329 29.955H140.577L140.089 32.647H137.8L136.073 41.898H132.499L134.226 32.647H132.46L132.981 29.956H133.023C133.647 29.9902 134.261 29.7849 134.739 29.3819C135.216 28.979 135.522 28.4089 135.594 27.788L135.835 26.423H138.971L138.329 29.955ZM159.211 25.255H155.637L152.551 41.888H156.083L157.328 35.262C157.352 34.6236 157.619 34.0186 158.075 33.5705C158.53 33.1224 159.139 32.8651 159.778 32.851C161.664 32.851 161.343 34.82 161.222 35.381L160.017 41.881H163.591L164.836 35.214C165.239 33.045 165.319 31.999 164.556 30.836C164.14 30.389 163.63 30.0392 163.063 29.8114C162.497 29.5836 161.887 29.4835 161.277 29.518C160.667 29.5526 160.073 29.721 159.535 30.0114C158.998 30.3017 158.531 30.7069 158.168 31.198H158.126L159.211 25.255ZM51.866 31.2001L52.107 29.9551V29.9141H55.6L53.391 41.8821H49.859L50.1 40.5971H50.057C49.5979 41.1602 49.0144 41.6093 48.3525 41.9089C47.6905 42.2086 46.9681 42.3507 46.242 42.3241C42.467 42.3241 40.781 39.3121 41.423 35.8991C41.6993 34.1683 42.5662 32.5866 43.8765 31.4227C45.1869 30.2587 46.8598 29.5843 48.611 29.5141C49.2536 29.4432 49.9026 29.5658 50.4751 29.8662C51.0475 30.1666 51.5172 30.631 51.824 31.2001H51.866ZM49.7412 38.0742C50.3913 37.5118 50.8295 36.7439 50.983 35.8981C51.0805 35.532 51.0889 35.148 51.0095 34.7775C50.9301 34.407 50.7641 34.0606 50.5252 33.7667C50.2862 33.4727 49.981 33.2394 49.6346 33.086C49.2881 32.9326 48.9103 32.8634 48.532 32.8841C47.6774 32.9144 46.8594 33.2385 46.216 33.8018C45.5725 34.365 45.1431 35.133 45 35.9761C44.9081 36.3384 44.9014 36.7171 44.9804 37.0824C45.0594 37.4478 45.222 37.7898 45.4554 38.0818C45.6888 38.3738 45.9866 38.6077 46.3255 38.7653C46.6645 38.9229 47.0353 38.9998 47.409 38.9901C48.2681 38.9598 49.0911 38.6367 49.7412 38.0742ZM60.983 29.9551H57.65L55.373 41.9271H59.017L60.262 35.3391C60.531 33.4921 61.789 33.1721 63.475 33.1301L64.117 29.5141C63.463 29.4821 62.8118 29.6206 62.2275 29.9162C61.6432 30.2118 61.1457 30.6542 60.784 31.2001H60.742L60.983 29.9551ZM70.142 25.2551H66.526L63.483 41.9191H67.057L68.142 36.1361H68.17L70.5 41.9211H74.559L71.387 35.2141L76.887 29.9531H72.671L68.536 34.2901H68.456L70.142 25.2551ZM77.808 31.4712C79.1598 30.3013 80.8611 29.6124 82.646 29.5121L82.648 29.5091C86.304 29.5091 88.431 32.4401 87.748 36.1351C87.7074 36.4524 87.6264 36.7632 87.507 37.0601H78.536C78.5216 37.3708 78.5745 37.681 78.6911 37.9694C78.8077 38.2578 78.9852 38.5176 79.2115 38.7311C79.4378 38.9445 79.7075 39.1066 80.0022 39.2062C80.2969 39.3058 80.6096 39.3405 80.919 39.3081C81.3793 39.3128 81.8349 39.2143 82.2521 39.0198C82.6693 38.8253 83.0377 38.5397 83.33 38.1841H86.984C86.224 39.417 85.1933 40.4607 83.97 41.2361C82.8951 41.939 81.6403 42.3168 80.356 42.3241C79.5637 42.3504 78.7759 42.1935 78.0542 41.8656C77.3324 41.5377 76.6961 41.0476 76.1947 40.4335C75.6933 39.8194 75.3405 39.0979 75.1636 38.3251C74.9867 37.5523 74.9906 36.7491 75.175 35.9781C75.5303 34.226 76.4563 32.6411 77.808 31.4712ZM80.2816 33.1069C79.7229 33.4717 79.2868 33.9962 79.03 34.6121H84.493C84.4889 34.3199 84.4236 34.0317 84.3012 33.7664C84.1789 33.501 84.0022 33.2642 83.7826 33.0714C83.563 32.8786 83.3054 32.7339 83.0264 32.6469C82.7474 32.5599 82.4533 32.5323 82.163 32.5661C81.4958 32.5536 80.8403 32.742 80.2816 33.1069ZM39.7 41.9191H36.13L36.12 32.4461H36.04L29.774 41.9221H26.682V32.4461H26.64L20.34 41.9221H16L27.207 25.2421H30.258V34.7181H30.3L36.646 25.2421H39.7V41.9191ZM94.6 29.9551H96.846L96.326 32.6471H94.037L92.31 41.8981H88.736L90.463 32.6471H88.697L89.258 29.9561H89.3C89.9232 29.9889 90.5356 29.783 91.0123 29.3802C91.4891 28.9774 91.7943 28.4081 91.866 27.7881L92.107 26.4231H95.242L94.6 29.9551Z" fill="white"/>
</svg>
