<svg width="181" height="64" viewBox="0 0 181 64" fill="none" xmlns="http://www.w3.org/2000/svg">
<path fill-rule="evenodd" clip-rule="evenodd" d="M49.042 40.184L58.573 14H68.834L59.3 40.184C59.172 40.536 58.9387 40.84 58.6319 41.0547C58.325 41.2694 57.9595 41.3844 57.585 41.384H47.51V41.375C47.8514 41.3403 48.1762 41.2102 48.4471 40.9996C48.718 40.7889 48.9242 40.5063 49.042 40.184ZM121.411 41.805C116.993 41.805 114.248 39.246 114.248 35.121C114.248 30.84 116.781 28.176 120.86 28.176H121.202C121.931 28.1747 122.658 28.2204 123.381 28.313V23.146H126.262V41.34C124.658 41.6074 123.037 41.7621 121.411 41.805ZM121.385 30.446C118.594 30.446 117.237 31.953 117.237 35.046C117.237 37.827 118.875 39.556 121.506 39.556C122.012 39.556 122.591 39.523 123.381 39.456V30.631C122.722 30.5162 122.054 30.4543 121.385 30.446ZM81.944 41.388L74.16 27.805V41.388H71.445V24.193H75.245L83.028 37.655V24.193H85.777V41.393L81.944 41.388ZM106.737 41.653C105.292 41.6383 103.852 41.4843 102.437 41.193L102.261 41.16V38.76L102.518 38.815C103.799 39.1402 105.11 39.3306 106.431 39.383C107.431 39.383 109.763 39.226 109.763 37.753C109.763 36.518 108.152 36.207 106.863 35.959L106.781 35.942C106.539 35.897 106.311 35.851 106.119 35.803C104.219 35.311 102.196 34.57 102.196 32.027C102.196 29.546 104.159 28.127 107.583 28.127C108.856 28.1313 110.127 28.238 111.383 28.446L111.849 28.514V30.845L111.601 30.8C110.422 30.5607 109.224 30.4268 108.021 30.4C106.661 30.4 105.048 30.655 105.048 31.864C105.048 32.864 106.368 33.155 107.898 33.488C110.036 33.95 112.687 34.531 112.687 37.449C112.687 40.126 110.525 41.662 106.75 41.662L106.737 41.653ZM134.366 41.662C131.384 41.662 128.622 41.136 128.622 37.328C128.611 33.173 132.879 33.173 135.432 33.173C135.643 33.173 136.508 33.2117 137.005 33.234L137.006 33.234L137.254 33.245C137.254 30.92 137.221 30.366 133.854 30.366C132.465 30.4148 131.083 30.5821 129.723 30.866L129.473 30.911V28.611L129.642 28.575C131.115 28.2709 132.615 28.1171 134.119 28.116C137.386 28.116 140.154 28.445 140.154 32.498V41.343L139.954 41.366C138.095 41.5707 136.225 41.6666 134.354 41.653L134.366 41.662ZM135.361 35.226C132.899 35.226 131.373 35.588 131.373 37.391C131.373 39.478 133.319 39.65 135.146 39.65C135.792 39.65 136.929 39.5707 137.364 39.5404L137.428 39.536V35.297C136.9 35.274 135.528 35.226 135.361 35.226ZM93.922 41.653C90.935 41.653 88.174 41.127 88.174 37.319C88.175 33.173 92.446 33.173 94.998 33.173C95.2097 33.173 96.0739 33.2116 96.5725 33.2338L96.5729 33.2339L96.824 33.245C96.824 30.92 96.788 30.366 93.417 30.366C92.028 30.4148 90.6456 30.582 89.285 30.866L89.035 30.911V28.611L89.208 28.575C90.6799 28.2707 92.179 28.1169 93.682 28.116C96.948 28.116 99.717 28.445 99.717 32.498V41.343L99.517 41.366C97.6592 41.5706 95.791 41.6664 93.922 41.653ZM94.922 35.226C92.461 35.226 90.938 35.588 90.938 37.391C90.938 39.478 92.881 39.65 94.707 39.65C95.3592 39.65 96.505 39.57 96.9344 39.54L96.992 39.536V35.297C96.46 35.274 95.092 35.226 94.922 35.226ZM151.624 47.231V41.59C150.896 41.7002 150.16 41.7527 149.424 41.747C148.262 41.7428 147.111 41.5182 146.033 41.085C143.835 40.171 142.521 37.851 142.521 34.878C142.521 33.392 142.883 30.678 145.306 29.211C146.78 28.4208 148.446 28.0601 150.115 28.17C150.887 28.17 151.935 28.228 152.935 28.287L154.572 28.372V45.924L151.624 47.231ZM149.9 30.44C146.972 30.44 145.488 31.933 145.488 34.874C145.488 38.66 147.702 39.456 149.563 39.456C150.262 39.4595 150.961 39.4114 151.653 39.312V30.521C150.77 30.463 150.362 30.439 149.899 30.439L149.9 30.44ZM46.687 40.991C46.9631 40.991 47.2352 40.9247 47.4804 40.7977C47.7256 40.6706 47.9367 40.4866 48.096 40.261C48.1901 40.1302 48.2667 39.9876 48.324 39.837L51.824 30.228L49.775 24.615C49.6556 24.3314 49.4627 24.0849 49.2161 23.9008C48.9695 23.7168 48.6783 23.6019 48.3725 23.5681C48.0667 23.5342 47.7574 23.5827 47.4765 23.7083C47.1957 23.834 46.9535 24.0324 46.775 24.283C46.6817 24.4144 46.6051 24.5568 46.547 24.707L43.047 34.313L45.101 39.947C45.2342 40.2571 45.4555 40.5213 45.7374 40.7069C46.0193 40.8924 46.3495 40.9912 46.687 40.991ZM37.249 23.155H47.435V23.159C47.073 23.1733 46.7234 23.2951 46.4308 23.5088C46.1382 23.7225 45.9158 24.0185 45.792 24.359L36.261 50.543H26L35.53 24.355C35.6586 24.0026 35.8926 23.6984 36.2001 23.4837C36.5077 23.269 36.8739 23.1543 37.249 23.155Z" fill="white"/>
</svg>
