<svg width="181" height="64" viewBox="0 0 181 64" fill="none" xmlns="http://www.w3.org/2000/svg">
<path fill-rule="evenodd" clip-rule="evenodd" d="M73.623 23.41V36.816H80.223V26.194C80.285 25.6802 80.4613 25.1868 80.739 24.75C80.9289 24.4112 81.2195 24.1399 81.5705 23.9736C81.9215 23.8073 82.3155 23.7543 82.698 23.822C83.2394 23.84 83.7538 24.0631 84.1368 24.4462C84.5199 24.8292 84.743 25.3436 84.761 25.885V36.713H91.361V30.526C91.448 28.2572 91.4146 25.9853 91.261 23.72C91.1725 22.0815 90.4728 20.5357 89.3 19.388C88.3782 18.4801 87.1836 17.9003 85.9 17.738C85.1084 17.6659 84.3107 17.6996 83.528 17.838C82.3784 18.0489 81.3286 18.628 80.537 19.488L80.021 19.901V10.003H73.421V23.41H73.623ZM143.75 10.21C143.544 10.623 136.84 26.81 136.84 26.81H144.678L148.184 18.457C150.143 13.816 151.69 10 151.69 10H143.852L143.75 10.21ZM59.185 17.841C57.8626 18.0047 56.5938 18.4629 55.472 19.182C54.3319 19.9493 53.3723 20.9555 52.66 22.1308C51.9477 23.306 51.4997 24.6222 51.347 25.988C51.1554 27.398 51.2252 28.8313 51.553 30.216C51.8888 31.7105 52.5931 33.0972 53.6017 34.2499C54.6104 35.4027 55.8913 36.2848 57.328 36.816C58.1882 37.1194 59.0974 37.2594 60.009 37.229C60.5268 37.2746 61.0484 37.2408 61.556 37.129C62.7287 36.8997 63.8062 36.3251 64.65 35.479L65.063 35.066V36.716H71.457V18.15H65.064V19.803L64.755 19.494C63.9265 18.6275 62.8421 18.0493 61.661 17.844C61.1869 17.7419 60.7006 17.7082 60.217 17.744C59.877 17.81 59.5313 17.8425 59.185 17.841ZM101.261 17.841C99.4613 18.0925 97.7566 18.803 96.311 19.904C95.0162 21.0002 94.0238 22.4098 93.4286 23.9985C92.8334 25.5872 92.6552 27.3019 92.911 28.979C93.1659 30.879 93.9931 32.6564 95.2826 34.0748C96.5721 35.4933 98.2628 36.4857 100.13 36.92C101.007 37.1364 101.908 37.2402 102.811 37.229C104.42 37.279 106.016 36.9245 107.452 36.198C108.849 35.5255 110.054 34.5114 110.956 33.2495C111.857 31.9877 112.425 30.5188 112.608 28.979C112.711 28.0191 112.711 27.0509 112.608 26.091C112.397 24.523 111.794 23.0335 110.855 21.76C110.324 21.092 109.737 20.4707 109.1 19.903C107.679 18.7606 105.962 18.0452 104.15 17.84C103.19 17.7372 102.221 17.7375 101.261 17.841ZM122.299 17.841C120.518 18.0472 118.835 18.7636 117.452 19.904C116.79 20.4443 116.201 21.0681 115.699 21.76C114.802 23.0566 114.204 24.5357 113.946 26.091C113.843 27.0509 113.843 28.0191 113.946 28.979C114.222 30.9751 115.117 32.8345 116.504 34.2958C117.891 35.7572 119.702 36.7469 121.681 37.126C122.389 37.3015 123.119 37.3709 123.847 37.332C125.501 37.3861 127.14 36.9945 128.591 36.198C130.482 35.2047 131.992 33.6151 132.887 31.6758C133.782 29.7366 134.012 27.5563 133.541 25.473C133.146 23.4758 132.122 21.6575 130.619 20.2844C129.116 18.9112 127.213 18.0553 125.188 17.842C124.228 17.7385 123.259 17.7382 122.299 17.841ZM30 18.253C30 18.253 31.753 22.481 33.919 27.638C36.085 32.795 37.838 37.023 37.838 37.023C37.838 37.023 37.219 38.57 36.394 40.423C35.569 42.276 34.95 43.723 34.95 43.823C36.1178 43.8855 37.2882 43.8855 38.456 43.823H41.962L47.222 31.138C50.11 24.125 52.482 18.453 52.482 18.35C51.3147 18.2701 50.1433 18.2701 48.976 18.35H45.469L43.3 23.719C42.372 26.607 41.444 29.082 41.444 29.082C41.444 29.082 40.516 26.607 39.278 23.719L37.215 18.356H33.609C31.65 18.253 30 18.253 30 18.253ZM62.382 23.822C63.0413 23.9838 63.6461 24.317 64.1352 24.7878C64.6242 25.2587 64.9802 25.8503 65.167 26.503C65.2701 27.1519 65.2701 27.8131 65.167 28.462C65.0181 29.1161 64.6874 29.7148 64.2131 30.1891C63.7388 30.6634 63.1401 30.9941 62.486 31.143C61.8371 31.2461 61.1759 31.2461 60.527 31.143C59.9629 30.9971 59.4386 30.7269 58.9925 30.3521C58.5465 29.9773 58.1899 29.5075 57.949 28.977C57.7172 28.3927 57.6244 27.7624 57.678 27.1361C57.7316 26.5097 57.9302 25.9044 58.258 25.368C58.7128 24.7283 59.3485 24.2393 60.0834 23.9638C60.8183 23.6883 61.6188 23.6389 62.382 23.822ZM103.53 23.922C104.238 24.0356 104.894 24.3632 105.411 24.861C105.927 25.3587 106.279 26.0025 106.418 26.706C106.521 27.3204 106.521 27.9476 106.418 28.562C106.258 29.1941 105.936 29.7736 105.484 30.2436C105.032 30.7136 104.465 31.058 103.84 31.243C103.191 31.3461 102.53 31.3461 101.881 31.243C100.864 30.9257 100.013 30.2223 99.509 29.284C99.2493 28.7752 99.142 28.2023 99.2 27.634C99.1924 27.1355 99.298 26.6417 99.509 26.19C99.8047 25.5326 100.267 24.9638 100.85 24.54C101.214 24.2294 101.648 24.0114 102.115 23.9043C102.581 23.7972 103.067 23.8043 103.53 23.925V23.922ZM124.465 23.922C125.063 24.0138 125.627 24.2626 126.098 24.6431C126.569 25.0236 126.931 25.5222 127.146 26.088C127.357 26.5397 127.463 27.0335 127.455 27.532C127.462 28.097 127.357 28.6578 127.146 29.182C126.91 29.6564 126.577 30.076 126.168 30.4134C125.759 30.7509 125.285 30.9988 124.774 31.141C124.125 31.2441 123.464 31.2441 122.815 31.141C122.181 30.9721 121.606 30.6329 121.152 30.1603C120.697 29.6877 120.381 29.0996 120.237 28.46C120.134 27.8111 120.134 27.1499 120.237 26.501C120.426 25.7117 120.874 25.0084 121.509 24.5037C122.145 23.999 122.931 23.722 123.743 23.717C123.95 23.822 124.259 23.822 124.466 23.925L124.465 23.922ZM138.49 28.46C137.564 28.5627 136.694 28.958 136.008 29.5885C135.322 30.219 134.855 31.0518 134.674 31.966C134.571 32.6149 134.571 33.2761 134.674 33.925C134.87 34.7134 135.283 35.431 135.867 35.9966C136.45 36.5622 137.18 36.9531 137.974 37.125C138.18 37.125 138.593 37.225 138.902 37.225C139.475 37.2417 140.046 37.1409 140.579 36.9286C141.112 36.7164 141.595 36.3973 142 35.991C142.418 35.5957 142.745 35.1143 142.959 34.5801C143.173 34.0459 143.268 33.4716 143.238 32.897C143.26 32.1758 143.091 31.4616 142.747 30.8275C142.403 30.1933 141.896 29.6621 141.279 29.288C140.894 28.9688 140.449 28.7311 139.97 28.5893C139.49 28.4475 138.987 28.4045 138.491 28.463L138.49 28.46ZM84.142 38.57C83.8316 38.6567 83.5454 38.8136 83.3054 39.0286C83.0654 39.2437 82.8781 39.5111 82.758 39.8101C82.6379 40.1091 82.5883 40.4318 82.6129 40.7531C82.6375 41.0744 82.7358 41.3858 82.9 41.663C83.1297 42.0163 83.4502 42.3013 83.828 42.488C84.1254 42.5927 84.4431 42.627 84.756 42.588C85.0689 42.6188 85.3848 42.5847 85.684 42.488C86.123 42.2552 86.4822 41.896 86.715 41.457C86.9448 40.9507 86.9654 40.3742 86.7723 39.8529C86.5792 39.3315 86.1881 38.9075 85.684 38.673C85.5667 38.5862 85.4335 38.5233 85.292 38.4879C85.1504 38.4526 85.0033 38.4455 84.859 38.467C84.6151 38.4341 84.3668 38.4698 84.142 38.57ZM78.573 38.67C77.7381 38.8095 76.9656 39.2 76.3582 39.7896C75.7508 40.3791 75.3374 41.1397 75.173 41.97C75.0835 42.3059 75.0497 42.6542 75.073 43.001V43.723H73.623V46.817H75.067V54.242H78.986V46.82H81.667V43.726H78.986V43.417C79.086 42.695 79.399 42.179 80.017 42.076C80.4967 41.9546 81.0026 41.9896 81.461 42.176C81.5561 42.2301 81.6612 42.2641 81.77 42.276V38.976L81.461 38.876C80.9331 38.6857 80.3695 38.6153 79.811 38.67C79.3999 38.6186 78.9839 38.6196 78.573 38.673V38.67ZM94.249 43.517C93.522 43.6794 92.8693 44.0782 92.393 44.651L92.187 44.96V43.726H88.268V54.245H92.187V48.16C92.2734 47.7798 92.4504 47.426 92.703 47.129C92.985 46.9332 93.3284 46.8461 93.6696 46.884C94.0109 46.9219 94.3268 47.0821 94.559 47.335C94.868 47.748 94.868 47.748 94.868 51.048V54.142H98.787V50.636C98.787 46.923 98.787 46.511 98.581 45.789C98.4383 45.1901 98.1142 44.6498 97.653 44.242C97.2772 43.8136 96.7689 43.5232 96.209 43.417C95.5539 43.397 94.8984 43.4315 94.249 43.52V43.517ZM104.049 43.417C103.309 43.5375 102.605 43.8191 101.986 44.242C100.828 45.1226 100.052 46.4147 99.82 47.851C99.7169 48.6383 99.7169 49.4357 99.82 50.223C99.9708 51.1169 100.323 51.9649 100.849 52.703C101.522 53.6178 102.517 54.244 103.633 54.456C104.354 54.58 105.093 54.5459 105.799 54.356C106.364 54.1854 106.89 53.905 107.346 53.531L107.759 53.118V54.149H111.678V43.623H107.759V44.654L107.45 44.554C106.895 43.9925 106.169 43.6301 105.387 43.523C104.946 43.4365 104.496 43.4009 104.046 43.417H104.049ZM119.003 43.517C118.27 43.6642 117.613 44.0659 117.147 44.651L116.941 44.857V43.623H113.022V54.142H116.941V51.151C116.941 47.951 116.941 47.951 117.147 47.438C117.244 47.2485 117.391 47.09 117.574 46.9806C117.756 46.8711 117.965 46.8151 118.178 46.819C118.514 46.8106 118.842 46.9199 119.106 47.128C119.519 47.541 119.519 47.437 119.519 50.944V54.038H123.438V50.223C123.438 46.407 123.438 46.407 123.338 45.995C123.22 45.691 123.116 45.3813 123.029 45.067C122.883 44.7517 122.672 44.4706 122.41 44.242C122.084 43.9015 121.7 43.6221 121.276 43.417C120.516 43.3476 119.75 43.3823 119 43.52L119.003 43.517ZM129.213 43.517C128.406 43.6171 127.632 43.9018 126.953 44.3488C126.273 44.7959 125.706 45.3934 125.294 46.095C125.088 46.508 124.881 47.023 124.675 47.539C124.578 48.0138 124.544 48.4994 124.575 48.983C124.509 49.6517 124.615 50.3261 124.884 50.942C125.191 51.8262 125.723 52.6149 126.429 53.2299C127.134 53.8448 127.988 54.2648 128.906 54.448C129.345 54.5517 129.798 54.5855 130.247 54.548C130.992 54.5915 131.736 54.4496 132.413 54.135L132.826 53.929V50.429L132.517 50.635C132.093 50.9257 131.586 51.0707 131.073 51.048C130.616 51.0978 130.153 51.0268 129.732 50.842C129.328 50.6443 129.002 50.3178 128.804 49.914C128.706 49.6508 128.672 49.368 128.704 49.089C128.68 48.81 128.714 48.529 128.804 48.264C128.975 47.8604 129.263 47.5171 129.631 47.2781C129.998 47.0392 130.429 46.9155 130.867 46.923C131.591 46.88 132.311 47.0601 132.93 47.439V43.932L132.621 43.832C131.532 43.4257 130.354 43.318 129.209 43.52L129.213 43.517ZM138.082 43.517C137.156 43.6906 136.287 44.0908 135.552 44.6817C134.818 45.2727 134.242 46.0361 133.874 46.904C133.506 47.7718 133.359 48.7172 133.446 49.6557C133.532 50.5942 133.849 51.4968 134.369 52.283C134.743 52.8498 135.228 53.3342 135.795 53.7067C136.363 54.0792 137 54.3318 137.669 54.449C138.663 54.5522 139.666 54.5522 140.66 54.449C141.677 54.2426 142.609 53.7402 143.341 53.005C143.636 52.6777 143.911 52.3334 144.166 51.974C144.166 51.974 143.444 51.665 142.516 51.355L140.866 50.736L140.66 50.942C140.415 51.2101 140.089 51.3913 139.732 51.458C139.482 51.541 139.217 51.5718 138.954 51.5486C138.691 51.5254 138.436 51.4486 138.204 51.3229C137.972 51.1973 137.769 51.0254 137.606 50.818C137.443 50.6106 137.324 50.3721 137.257 50.117V49.911H144.476V48.983C144.516 48.5677 144.482 48.1486 144.376 47.745C144.194 46.6595 143.691 45.6535 142.932 44.857C142.206 44.1326 141.266 43.6622 140.251 43.516C139.53 43.4134 138.798 43.4147 138.078 43.52L138.082 43.517ZM82.8 48.986V54.246H86.719V43.726H82.8V48.986ZM139.625 46.403C139.886 46.5008 140.13 46.6403 140.347 46.816C140.462 46.9016 140.557 47.0099 140.629 47.1341C140.7 47.2583 140.744 47.3958 140.76 47.538V47.744H139.007C137.048 47.744 137.151 47.744 137.357 47.331C137.574 46.9427 137.917 46.6395 138.329 46.4709C138.741 46.3024 139.198 46.2784 139.625 46.403ZM106.315 46.919C106.751 47.0379 107.137 47.2941 107.415 47.6497C107.694 48.0052 107.85 48.4412 107.862 48.8928C107.873 49.3444 107.738 49.7876 107.478 50.1565C107.217 50.5255 106.844 50.8006 106.415 50.941C105.939 51.0442 105.447 51.0442 104.971 50.941C104.653 50.85 104.363 50.6794 104.129 50.4453C103.895 50.2112 103.725 49.9213 103.634 49.603C103.551 49.372 103.516 49.126 103.534 48.881C103.512 48.7367 103.52 48.5896 103.555 48.448C103.59 48.3065 103.653 48.1733 103.74 48.056C103.974 47.6006 104.358 47.2395 104.827 47.0333C105.296 46.827 105.821 46.7881 106.315 46.923V46.919Z" fill="white"/>
</svg>
